<svg xmlns="http://www.w3.org/2000/svg" viewBox="0 0 500 500"><g id="freepik--Clouds--inject-321"><g id="freepik--clouds--inject-321"><path d="M487.87,300.87a13.33,13.33,0,0,1-8.6.73,21.49,21.49,0,0,1-15.58,17.78c-7.83,2-16.37-.68-22.61-6.16a27.06,27.06,0,0,1-10,9.6c-4.23,2.23-9.16,3-13.83,3.2-9.32.39-19.14-6.55-24.87-14.09-1.49,7.43-8,13.33-15.1,13.62s-14-5.07-16-12.36c-6,9.53-18.66,15.18-29.16,12.21a25.25,25.25,0,0,1-16.24-15.33c-.51,4.61-7,9.23-11.24,10.29-7.58,1.9-13.84-1.12-20.74-5-1.33,5.92-5.94,10.53-11.17,12.87a31.49,31.49,0,0,1-32-4c-1.4-1.1-8.63-6.72-10.39-13.7-6.55,7.82-19.79,7.23-25.71-1.14-5,11.08-15.57,19.05-27,20.36s-23.3-4.1-30.38-13.8c-8.34,10.65-29.21,12.81-34.54-2.51-4.89,10.09-15.29,17.14-25.85,16.4s-20.4-10-21.52-21.26c-2.16,4.7-6.07,8.73-10.88,9.66s-10.32-2-11.64-7.05c-9.08,8.42-27.92,9.44-34.66-3-4.95-9.1-2.21-22.72,6.58-27.92a26,26,0,0,1-6.41-23.6c1.94-8.34,8.3-15.31,16-17.57a11.93,11.93,0,0,1-2.77-12.77c1.41-3.9,5.5-7.15,9.29-6.32-5.66-4.71-5.7-15,.78-20.79a14.88,14.88,0,0,1,8.39-3.7,13.6,13.6,0,0,1,8.15,2c.31-4.77,2.16-9.72,5.94-12.25s9.61-1.62,11.62,2.65a21.25,21.25,0,0,1,6.6-20.35,17.92,17.92,0,0,1,20-2c-1.15-6.75.41-14.55,4.93-19.82,3.82-4.45,10-6.73,15.62-4.38a17,17,0,0,1,7.51,6.6,8.14,8.14,0,0,1,16.08,1.79A15.08,15.08,0,0,1,144.74,139c9.15-4.06,16.07,1.82,17.58,5.08a11.15,11.15,0,0,1,2.4-9.06c3.48-4.12,12.83-5.48,16.13-.51a11.7,11.7,0,0,1,8.94-7.35A15.06,15.06,0,0,1,201.23,130a9.24,9.24,0,0,1,3.55-6.41,17,17,0,0,1,6.8-3.11c8.54-2,17.68.39,21.44,8.7,3.45-2.91,9.95-3.26,13.4-.33s4.82,6.91,3.16,12.36a10.25,10.25,0,0,1,14.29-.25c3.88,3.81,4.37,10.94,1.06,15.31,7.12-2.81,14.72-.82,20.15,10.54-2.58-8.93,2.2-15.6,9.08-17.2s14.12,2.73,17.94,9.08c2.92-6.85,13.61-7.3,17-.71,4-11.75,13.12-19.6,26.2-17.38,3.74.64,11.34,5.85,11.6,12.5a12.19,12.19,0,0,1,13.61-1.42,14.07,14.07,0,0,1,6.83,12.72c.6-13,23-11.87,26.39-1,5.34-5.28,16.94-4.49,22.7.33s8.29,12.11,6.67,20.06c.49-3.2,4.11-5.34,7.29-4.75s5.66,3.4,6.46,6.53a14.65,14.65,0,0,1-1.18,9.46,14.85,14.85,0,0,1,14.72,2.64c4.63,4.05,4.65,8.94,4.71,14.55a7.55,7.55,0,0,1,5.25,2.22c7.58,6.69,5.61,17.34-.28,24.43,6.63.82,12.57,6.24,14.39,13.14a19.49,19.49,0,0,1-5.82,19.29c0,.08,4.83,1.82,7.17,9.54,1.23,4,1.51,8.56-.21,12.42A14.94,14.94,0,0,1,487.87,300.87Z" style="fill:#fff"></path><g style="opacity:0.1"><path d="M217.27,123.84c3.33,0,9.33.91,12.11,7a4,4,0,0,0,2.76,2.25,3.77,3.77,0,0,0,.88.1,4,4,0,0,0,2.58-.94,7.34,7.34,0,0,1,4.56-1.42,5.83,5.83,0,0,1,3.67,1.08c2.1,1.78,3.23,3.84,1.92,8.14a4,4,0,0,0,1.81,4.62,3.93,3.93,0,0,0,2,.55,4,4,0,0,0,2.9-1.24,6,6,0,0,1,4.39-1.79,5.92,5.92,0,0,1,4.21,1.64c2.44,2.39,2.76,7.27.67,10a4,4,0,0,0,3.19,6.41,4.1,4.1,0,0,0,1.46-.27,11.23,11.23,0,0,1,4.16-.86c4.26,0,7.94,3.16,10.92,9.39a4,4,0,0,0,3.61,2.28,4.2,4.2,0,0,0,1.43-.26,4,4,0,0,0,2.41-4.86,10.35,10.35,0,0,1,.63-8.25,8.52,8.52,0,0,1,5.52-3.94,9,9,0,0,1,2-.23c4.23,0,8.89,3,11.59,7.48a4,4,0,0,0,3.42,1.94h.28a4,4,0,0,0,3.4-2.43,5.43,5.43,0,0,1,5.09-3c.79,0,3.48.18,4.69,2.52a4,4,0,0,0,3.55,2.17h.3a4,4,0,0,0,3.49-2.7c1.92-5.62,6.82-15.05,18.08-15.05a22.16,22.16,0,0,1,3.65.32c2.39.41,8.12,4.47,8.28,8.71a4,4,0,0,0,6.58,2.9,8.21,8.21,0,0,1,5.32-1.92,7.81,7.81,0,0,1,3.77.95,10.17,10.17,0,0,1,4.78,9,4,4,0,0,0,3.81,4.18h.19a4,4,0,0,0,4-3.81c.24-5.23,6.25-5.64,8.09-5.64,4.22,0,9.32,2,10.48,5.66a4,4,0,0,0,6.63,1.65c1.59-1.58,4.39-2.48,7.67-2.48a15.7,15.7,0,0,1,9.66,3,16.18,16.18,0,0,1,5.4,15.77q-.07.31-.12.63a4,4,0,0,0,3.26,4.53,4.14,4.14,0,0,0,.7.06,4,4,0,0,0,3.91-3.2c0-.11.05-.22.07-.33a2.45,2.45,0,0,1,2.22-1.32,2,2,0,0,1,.35,0,4.81,4.81,0,0,1,3.32,3.6,10.74,10.74,0,0,1-1,6.83,4,4,0,0,0,3.65,5.63,4.1,4.1,0,0,0,1.42-.26,10.15,10.15,0,0,1,3.62-.65,10.82,10.82,0,0,1,7,2.56c3.1,2.71,3.27,5.79,3.34,11.44v.14a4,4,0,0,0,1.27,2.88,4,4,0,0,0,2.73,1.08h.29a4.18,4.18,0,0,1,2.31,1.23c5.67,5,3.94,13.28-.71,18.88a4,4,0,0,0,2.59,6.52c5,.62,9.62,4.9,11,10.19s-.49,11.79-4.54,15.22a4,4,0,0,0-1.37,2.39A4,4,0,0,0,487,275c1.27.65,3.63,2.44,5,7.05,1.11,3.65,1.09,7.08-.05,9.63a10.93,10.93,0,0,1-5.65,5.51,10,10,0,0,1-3.87.81,8.35,8.35,0,0,1-2.13-.27,4,4,0,0,0-1-.13,4,4,0,0,0-2.25.69,4,4,0,0,0-1.72,2.83,17,17,0,0,1-17,14.93,22.62,22.62,0,0,1-14.61-5.83,4,4,0,0,0-2.65-1,3.14,3.14,0,0,0-.61,0,4,4,0,0,0-2.82,1.9,22.9,22.9,0,0,1-8.45,8.11c-3.1,1.63-7.07,2.53-12.14,2.74h-.59c-7.88,0-16.19-6.29-20.93-12.52a4,4,0,0,0-3.18-1.58,3.94,3.94,0,0,0-.9.1,4,4,0,0,0-3,3.12c-1.13,5.62-6.11,10.19-11.34,10.4h-.39c-5.14,0-10.13-4.05-11.61-9.43a4,4,0,0,0-7.24-1.07A24.42,24.42,0,0,1,338,322.19a17.6,17.6,0,0,1-4.8-.64,21.17,21.17,0,0,1-13.57-12.89,4,4,0,0,0-3.74-2.59,4.36,4.36,0,0,0-.51,0,4,4,0,0,0-3.47,3.53c-.25,2.21-4.79,6-8.24,6.85a15.08,15.08,0,0,1-3.68.46c-4.72,0-9.2-2.29-14.14-5.06a4,4,0,0,0-1.95-.51,4,4,0,0,0-3.91,3.12c-.94,4.2-4.35,8.07-8.89,10.09a27.44,27.44,0,0,1-27.92-3.51l-.08-.05c-4.84-3.83-8-7.91-8.91-11.49a4,4,0,0,0-3-2.92,3.8,3.8,0,0,0-.89-.1,4,4,0,0,0-3.07,1.43A11.91,11.91,0,0,1,218,312a12.32,12.32,0,0,1-10.14-5,4,4,0,0,0-3.26-1.69h-.38a4,4,0,0,0-3.27,2.34c-4.43,9.81-13.77,16.89-23.79,18a26.25,26.25,0,0,1-3,.16,30,30,0,0,1-23.74-12.35,4,4,0,0,0-3.17-1.64h-.07a4,4,0,0,0-3.15,1.53c-3.3,4.22-9.23,7-15.11,7-3.59,0-10-1.08-12.5-8.31a4,4,0,0,0-3.55-2.68h-.23a4,4,0,0,0-3.6,2.25c-4.11,8.5-12.44,14.2-20.72,14.2-.42,0-.84,0-1.25,0-8.92-.63-16.91-8.55-17.82-17.67a4,4,0,0,0-3.32-3.55,4.89,4.89,0,0,0-.66-.05,4,4,0,0,0-3.63,2.33c-1.82,4-4.89,6.8-8,7.4a5.19,5.19,0,0,1-1,.1c-2.35,0-5.24-1.48-6-4.23a4,4,0,0,0-2.74-2.83,4.34,4.34,0,0,0-1.13-.16A4,4,0,0,0,40,308.24a22.12,22.12,0,0,1-14.55,5.28c-3,0-10.34-.71-13.88-7.22-4.06-7.46-1.53-18.64,5.1-22.56a4,4,0,0,0,.82-6.25,22.13,22.13,0,0,1-5.37-19.89c1.61-6.91,6.94-12.79,13.26-14.64a4,4,0,0,0,2.74-2.83,4,4,0,0,0-1-3.8,8,8,0,0,1-1.88-8.62c.73-2,2.75-3.81,4.32-3.81a2,2,0,0,1,.36,0,3.58,3.58,0,0,0,.85.1A4,4,0,0,0,33.37,217a8.43,8.43,0,0,1-2.73-6.4,10.86,10.86,0,0,1,9.71-11l.5,0a9.63,9.63,0,0,1,5,1.36,4,4,0,0,0,2.28.71,4.12,4.12,0,0,0,1.74-.39,4,4,0,0,0,2.25-3.35c.27-4.12,1.87-7.64,4.18-9.19a4.48,4.48,0,0,1,2.5-.73,3.51,3.51,0,0,1,3.26,1.76,4,4,0,0,0,3.63,2.3,3.89,3.89,0,0,0,1.29-.22,4,4,0,0,0,2.61-4.65,17.2,17.2,0,0,1,5.28-16.41,13.9,13.9,0,0,1,8.95-3.21,13.32,13.32,0,0,1,6.51,1.66A4,4,0,0,0,96.22,165c-1-6,.56-12.51,4-16.55a10.77,10.77,0,0,1,7.92-3.92,8.07,8.07,0,0,1,3.11.62,13.22,13.22,0,0,1,5.7,5.09,4,4,0,0,0,7.26-1.27,4.47,4.47,0,0,1,4.14-3.21l.35,0a4.44,4.44,0,0,1,3.69,4.1,4,4,0,0,0,3.62,4l.39,0a4,4,0,0,0,3.92-3.22,11,11,0,0,1,6-8,11.24,11.24,0,0,1,4.56-1,9.24,9.24,0,0,1,7.76,4.13,4,4,0,0,0,3.64,2.33,4.22,4.22,0,0,0,1.15-.17,4,4,0,0,0,2.8-4.44,7.19,7.19,0,0,1,1.51-5.87c1.09-1.3,3.69-2.28,6-2.28.83,0,2.86.14,3.7,1.41a4,4,0,0,0,3.33,1.78,4.36,4.36,0,0,0,.51,0,4,4,0,0,0,3.28-2.66,7.66,7.66,0,0,1,5.87-4.72,8.35,8.35,0,0,1,1.6-.15,11.59,11.59,0,0,1,6.74,2.34,4.06,4.06,0,0,0,2.38.78,3.89,3.89,0,0,0,1.69-.38,4,4,0,0,0,2.3-3.37,5.33,5.33,0,0,1,2.09-3.56,13.08,13.08,0,0,1,5.21-2.32,20.48,20.48,0,0,1,4.75-.57m0-4a24.65,24.65,0,0,0-5.69.68,17,17,0,0,0-6.8,3.11,9.24,9.24,0,0,0-3.55,6.41,15.59,15.59,0,0,0-9.12-3.12,12.92,12.92,0,0,0-2.32.21,11.7,11.7,0,0,0-8.94,7.35c-1.48-2.23-4.19-3.19-7-3.19-3.49,0-7.18,1.44-9.1,3.7a11.15,11.15,0,0,0-2.4,9.06c-1.14-2.48-5.41-6.46-11.4-6.46a14.77,14.77,0,0,0-14.5,12.25,8.43,8.43,0,0,0-7.24-8.05,7.31,7.31,0,0,0-.8,0,8.47,8.47,0,0,0-8,6.31,17,17,0,0,0-7.51-6.6,11.83,11.83,0,0,0-4.66-.94,14.77,14.77,0,0,0-11,5.32c-4.52,5.27-6.08,13.07-4.93,19.82a17.3,17.3,0,0,0-8.46-2.17,18,18,0,0,0-11.53,4.14A21.25,21.25,0,0,0,65.69,188a7.42,7.42,0,0,0-6.89-4.06,8.51,8.51,0,0,0-4.73,1.41c-3.78,2.53-5.63,7.48-5.94,12.25a13.65,13.65,0,0,0-7.28-2.07,7.83,7.83,0,0,0-.87,0,14.88,14.88,0,0,0-8.39,3.7c-6.48,5.75-6.44,16.08-.78,20.79a5.47,5.47,0,0,0-1.21-.13c-3.42,0-6.82,3-8.08,6.45a11.93,11.93,0,0,0,2.77,12.77c-7.72,2.26-14.08,9.23-16,17.57a26,26,0,0,0,6.41,23.6c-8.79,5.2-11.53,18.82-6.58,27.92,3.53,6.49,10.37,9.31,17.39,9.31a26,26,0,0,0,17.27-6.35,10.15,10.15,0,0,0,9.83,7.22,10,10,0,0,0,1.81-.17c4.81-.93,8.72-5,10.88-9.66,1.12,11.3,11,20.52,21.52,21.26.51,0,1,.05,1.53.05,10,0,19.67-6.85,24.32-16.45,2.68,7.71,9.3,11,16.28,11s14.12-3.19,18.26-8.48a34,34,0,0,0,27,14,29.8,29.8,0,0,0,3.4-.19c11.42-1.31,22-9.28,27-20.36A16.32,16.32,0,0,0,218,316a15.94,15.94,0,0,0,12.31-5.52c1.76,7,9,12.6,10.39,13.7a31.39,31.39,0,0,0,19.43,6.68,30.94,30.94,0,0,0,12.6-2.65c5.23-2.34,9.84-6.95,11.17-12.87,5.44,3.05,10.48,5.57,16.09,5.57a19.1,19.1,0,0,0,4.65-.58c4.21-1.06,10.73-5.68,11.24-10.29a25.25,25.25,0,0,0,16.24,15.33,21.49,21.49,0,0,0,5.88.79,28.57,28.57,0,0,0,23.28-13c1.95,7.11,8.59,12.37,15.47,12.37h.55c7.07-.29,13.61-6.19,15.1-13.62,5.57,7.33,15,14.1,24.11,14.1h.76c4.67-.2,9.6-1,13.83-3.2a27.06,27.06,0,0,0,10-9.6,26.63,26.63,0,0,0,17.26,6.83,21.09,21.09,0,0,0,5.35-.67,21.49,21.49,0,0,0,15.58-17.78,12.56,12.56,0,0,0,3.16.4,14,14,0,0,0,5.44-1.13,14.94,14.94,0,0,0,7.74-7.56c1.72-3.86,1.44-8.4.21-12.42-2.34-7.72-7.18-9.46-7.17-9.54a19.49,19.49,0,0,0,5.82-19.29c-1.82-6.9-7.76-12.32-14.39-13.14,5.89-7.09,7.86-17.74.28-24.43a7.79,7.79,0,0,0-5-2.23h-.29c-.06-5.61-.08-10.5-4.71-14.55a14.84,14.84,0,0,0-9.68-3.55,14.26,14.26,0,0,0-5,.91,14.65,14.65,0,0,0,1.18-9.46c-.8-3.13-3.28-6-6.46-6.53a5.64,5.64,0,0,0-1.08-.1,6.32,6.32,0,0,0-6.13,4.45c0,.13-.05.27-.08.4,0-.13.05-.27.08-.4,1.46-7.8-1.08-14.93-6.75-19.66-3-2.54-7.7-4-12.22-4-4,0-8,1.14-10.48,3.63C412,158,405.55,155,399.44,155s-11.79,3-12.09,9.45a14.07,14.07,0,0,0-6.83-12.72,11.85,11.85,0,0,0-5.71-1.45,12.22,12.22,0,0,0-7.9,2.87c-.26-6.65-7.87-11.86-11.6-12.5a26.33,26.33,0,0,0-4.33-.38c-10.76,0-18.31,7.35-21.87,17.76a9.05,9.05,0,0,0-8.24-4.69,9.32,9.32,0,0,0-8.77,5.4c-3.28-5.45-9.09-9.42-15-9.42a12.67,12.67,0,0,0-2.93.34c-6.88,1.6-11.66,8.27-9.08,17.2-4-8.4-9.22-11.67-14.53-11.67a15.31,15.31,0,0,0-5.62,1.13c3.31-4.37,2.82-11.5-1.06-15.31a10.24,10.24,0,0,0-14.29.25c1.66-5.45.43-9.32-3.16-12.36a9.69,9.69,0,0,0-6.26-2,11.32,11.32,0,0,0-7.14,2.36c-2.93-6.47-9.12-9.38-15.75-9.38Z" style="fill:#BA68C8"></path></g><path d="M479.27,301.6a13.33,13.33,0,0,0,8.6-.73,14.94,14.94,0,0,0,7.74-7.56c1.72-3.86,1.44-8.4.21-12.42-2.34-7.72-7.18-9.46-7.17-9.54a19.49,19.49,0,0,0,5.82-19.29c-1.82-6.9-7.76-12.32-14.39-13.14,5.89-7.09,7.86-17.74.28-24.43a7.55,7.55,0,0,0-5.25-2.22c-.06-5.61-.08-10.5-4.71-14.55a13.66,13.66,0,0,0-2.73-1.85c1.68,2.73,2.81,5.56,2.46,10.84s-3,9.19-7.88,11.89c6.5,3.4,9.13,9.12,8.45,17.33a16.4,16.4,0,0,1-5,9.68c5.26,2.06,11.3,6.29,10.55,12.5a14.67,14.67,0,0,1-1.79,5.39,16.65,16.65,0,0,1-7.44,6.89c-5.29,2.46-11.33,2.25-17,1.1,1,5.93-2.74,11.95-7.75,14.71s-10.92,2.86-16.51,2.17c-8.15-1-17.11-4.51-20.27-12.64-5.91,10.8-16.74,19-28.41,18.88s-23.15-10.35-23.44-22.88c-4.4,8.36-10.62,17.14-18.83,20.77-13.6,6-23.88-1.9-26.15-7.7a14.73,14.73,0,0,1-27-.39,40.6,40.6,0,0,1-32.38,12.73c-11.81-1-23.12-7.64-30.21-17.84-.84-1.2-1.71-2.52-3-3-2.36-.87-4.67,1.25-6.51,3.05-11.77,11.57-29,16.41-44.5,12.55-8.33-2.07-16.63-7.05-20.14-15.42-5.14,10.65-15.87,17.92-27,18.33s-22.32-6.09-28.12-16.35a23.53,23.53,0,0,1-23.63,8.89c-8.59-2-15.85-9.5-18.07-18.63-7.35,3.8-17.58,2-21.61-5.59s2.18-19.5,10.2-17.89C30,237.16,38,220.89,46.9,217.17c-11.63-1.23-15.53-8.5-14.45-18.63-.3.22-.58.45-.86.7-6.48,5.75-6.44,16.08-.78,20.79-3.79-.83-7.88,2.42-9.29,6.32a11.93,11.93,0,0,0,2.77,12.77c-7.72,2.26-14.08,9.23-16,17.57a26,26,0,0,0,6.41,23.6c-8.79,5.2-11.53,18.82-6.58,27.92,6.74,12.4,25.58,11.38,34.66,3,1.32,5.05,6.83,8,11.64,7.05s8.72-5,10.88-9.66c1.12,11.3,11,20.52,21.52,21.26s21-6.31,25.85-16.4c5.33,15.32,26.2,13.16,34.54,2.51,7.08,9.7,19,15.1,30.38,13.8s22-9.28,27-20.36c5.92,8.37,19.16,9,25.71,1.14,1.76,7,9,12.6,10.39,13.7a31.49,31.49,0,0,0,32,4c5.23-2.34,9.84-6.95,11.17-12.87,6.9,3.87,13.16,6.89,20.74,5,4.21-1.06,10.73-5.68,11.24-10.29a25.25,25.25,0,0,0,16.24,15.33c10.5,3,23.16-2.68,29.16-12.21,2,7.29,8.95,12.65,16,12.36s13.61-6.19,15.1-13.62c5.73,7.54,15.55,14.48,24.87,14.09,4.67-.2,9.6-1,13.83-3.2a27.06,27.06,0,0,0,10-9.6c6.24,5.48,14.78,8.19,22.61,6.16A21.49,21.49,0,0,0,479.27,301.6Z" style="fill:#BA68C8;opacity:0.1"></path><path d="M400.32,157.58c.42-.29.86-.56,1.31-.81a18.9,18.9,0,0,1,2.55-1.17c-7.47-1.91-16.45.67-16.83,8.84a14.07,14.07,0,0,0-6.83-12.72,12.19,12.19,0,0,0-13.61,1.42c-.26-6.65-7.87-11.86-11.6-12.5a24.75,24.75,0,0,0-6.71-.25,14,14,0,0,1,9,7.08c2.4,4.63-2.39,10.09-6.79,11.53,2.6-.58,5.05,2.31,5,5.16s-1.94,5.32-4.15,6.9c-2.85,2-6.94,2.83-9.55.46a8.71,8.71,0,0,1-5.72,5.4,8,8,0,0,1-7.41-1.85c3.2,5.44,10.5,7.54,15.8,4.54a3.83,3.83,0,0,1,1.69-.67,4.16,4.16,0,0,1,2.08.88c3.23,1.94,7.47,1.19,10.47-1.15s4.9-6,6-9.79c1.93,5.9,8.06-4.52,9.07-5a4.16,4.16,0,0,1,4.46.68,5.84,5.84,0,0,1,1.89,4.25,8.17,8.17,0,0,1,10.79.84A24.06,24.06,0,0,1,400.32,157.58Z" style="fill:#BA68C8;opacity:0.1"></path><path d="M399.65,203.78a9,9,0,0,0-8.54-4.09,12,12,0,0,0-8.22,5.25,7.86,7.86,0,0,0-6.42-7.1c-3.28-.6-6.65.76-9.35,2.85,2.72-1.52,6.22-.17,8.3,2.25s3.08,5.66,4,8.8c2.87-3.42,7.54-4.56,11.8-4s8.21,2.6,12,4.68c0-5.74,1.49-11.67,5.1-15.9s9.52-6.43,14.52-4.23c-3.48-4.64-7.95-6.05-13.46-4.72a12.26,12.26,0,0,0-7.83,6.56C400.69,195.94,398.41,201.77,399.65,203.78Z" style="fill:#BA68C8;opacity:0.1"></path><path d="M143.1,166.83a14.76,14.76,0,0,1-10.9,5.73,11.53,11.53,0,0,1-10.37-6.22,7.14,7.14,0,0,1-8.78,1.86,8.25,8.25,0,0,1-3.81-8.69c-.41,2-6.54-1.81-7.22-2.45A12.63,12.63,0,0,1,97.71,149a11.75,11.75,0,0,1,.35-4.09c-.29.3-.58.6-.85.92-4.52,5.27-6.08,13.07-4.93,19.82a17.92,17.92,0,0,0-20,2,19.79,19.79,0,0,0-5.74,8.43,19.38,19.38,0,0,1,13.81-2.78c-.23,4.72,7,6.8,10.64,6.29,2.93-.41,6-2.53,6.24-5.68a10.78,10.78,0,0,0,9.42,7.65,10.62,10.62,0,0,0,10-6.75,17.43,17.43,0,0,0,14.91,2.48A18.88,18.88,0,0,0,143.1,166.83Z" style="fill:#BA68C8;opacity:0.1"></path><path d="M204.21,160.14a11.64,11.64,0,0,1,4.08,8.09c1.69-2,4.72-1.87,7-.78a12.76,12.76,0,0,1,6.05,6.22,8.85,8.85,0,0,0-7.3-2.08,18,18,0,0,0-8.25,3.54c-.56-3.67-1.14-7.19-3.2-10.33-2.5-3.82-6.3-6.22-7.63-5.37A8,8,0,0,1,204.21,160.14Z" style="fill:#BA68C8;opacity:0.1"></path><path d="M74.62,207.39a1.38,1.38,0,0,0-.94.3,8.68,8.68,0,0,1,12.75-.16,10.48,10.48,0,0,1,10.24-2.39,11.53,11.53,0,0,1,7.35,8c3.1-1.93,6.75-2.34,9.62.33a10.59,10.59,0,0,0-9.58,5.51c-2.39-3.35-5.52-6.27-9.3-7.44s-8.26-.27-10.82,2.94c-.28-2.2-1.76-4.87-3.73-5.77A17.23,17.23,0,0,0,74.62,207.39Z" style="fill:#BA68C8;opacity:0.1"></path></g></g><g id="freepik--Floor--inject-321"><path id="freepik--floor--inject-321" d="M81.13,248.12c-93.26,53.84-93.26,141.14,0,195s244.48,53.85,337.74,0,93.26-141.15,0-195S174.39,194.27,81.13,248.12Z" style="fill:#f5f5f5"></path></g><g id="freepik--Shadow--inject-321"><path id="freepik--shadow--inject-321" d="M369.28,437.2l-17.11,9.87c-25.65,14.81-70.45,12.95-100.07-4.14L133.54,374.48c-29.61-17.1-32.83-43-7.18-57.78l17.11-9.88c25.65-14.8,70.45-12.95,100.07,4.15l118.55,68.45C391.71,396.52,394.93,422.39,369.28,437.2Z" style="fill:#e0e0e0"></path></g><g id="freepik--Unicorn--inject-321"><g id="freepik--unicorn--inject-321"><path d="M353.58,120.78c28.71,2,41.59,26.53,33.54,54s-28.42,32.17-31.69,48.66C338.07,189.66,353.58,120.78,353.58,120.78Z" style="fill:#BA68C8"></path><path d="M353.58,120.78c28.71,2,41.59,26.53,33.54,54s-28.42,32.17-31.69,48.66C338.07,189.66,353.58,120.78,353.58,120.78Z" style="fill:#fff;opacity:0.55"></path><path d="M388.63,149.53c16.13,10.52,19.88,38.64,6.94,57.16-15.51,22.19-42.19,29.95-40.65,54.05-12.77-29.64,2.45-48.45,13.11-58.65C380.71,190,390.72,173.86,388.63,149.53Z" style="fill:#BA68C8"></path><path d="M388.63,149.53c16.13,10.52,19.88,38.64,6.94,57.16-15.51,22.19-42.19,29.95-40.65,54.05-12.77-29.64,2.45-48.45,13.11-58.65C380.71,190,390.72,173.86,388.63,149.53Z" style="fill:#fff;opacity:0.4"></path><path d="M368,202.09c-8,7.7-18.69,20.31-17.92,38.79l.09.16c.38-11,1.82-17.94,24.1-38s21.67-44.35,14.33-53.51C390.72,173.86,380.71,190,368,202.09Z" style="fill:#BA68C8;opacity:0.30000000000000004"></path><path d="M400.86,196.2c6.37,13,8.3,25.31-5.95,45.74s-40,32.52-35.77,50.94C353.88,282.7,346.26,254,361.79,238S391.2,212.94,400.86,196.2Z" style="fill:#BA68C8"></path><path d="M400.86,196.2c6.37,13,8.3,25.31-5.95,45.74s-40,32.52-35.77,50.94C353.88,282.7,346.26,254,361.79,238S391.2,212.94,400.86,196.2Z" style="fill:#fff;opacity:0.25"></path><path d="M361.79,238c-7.6,7.81-9.65,18.67-9.15,28.91C353.82,253.29,365,242,376,233.45c12-9.37,27.25-23,24.87-37.25C391.2,212.94,377.32,222.05,361.79,238Z" style="fill:#BA68C8"></path><path d="M406.19,292.89c-9.74,14.46-33.06,6.37-31,0,2.44-7.41,1.62-22.94-2.61-29,8.39-11.27,13.23-28,5.48-41.38,17.8-17.8,17.05-42.2,8.12-48.32,2.34-19.74-9.94-32.4-25.66-30.74l-12.69,17.79c-1.45,19.91-.93,43.09,6.26,59.43-4.28,9.26-6,21-.95,35.55-2.16,13.48,1.92,28.11,5.4,35.5,1.94,7.66,8.5,16.84,21.87,16.73C396.17,308.32,403.36,301,406.19,292.89Z" style="fill:#BA68C8;opacity:0.30000000000000004"></path><path d="M387.3,251.23c-9.87,9.81-9.15,28.61,5.54,30.87,11.63,1.79,12.85-9.37,12.85-9.37,3.49,6,6.39,35.46-25.25,35.71-19.3.16-24.42-19.05-21.93-25.1C365.81,265.55,378.72,260.38,387.3,251.23Z" style="fill:#BA68C8"></path><path d="M387.3,251.23c-8.58,9.15-21.49,14.32-28.79,32.11-1.46,3.55-.29,11.65,4.83,17.69-6.26-10.71,4.12-24.18,13.37-32.43,1.59-1.41,3-2.73,4.14-4A22.83,22.83,0,0,1,387.3,251.23Z" style="opacity:0.15"></path><path d="M375.22,292.88c2.44-7.41,1.62-22.94-2.61-29h0a50.84,50.84,0,0,0-14.1,19.46c-2.49,6.05,2.63,25.26,21.93,25.1,15.73-.12,22.92-7.46,25.75-15.55h0C396.45,307.35,373.13,299.26,375.22,292.88Z" style="opacity:0.15"></path><g id="freepik--Tail--inject-321"><path d="M169.54,154.33c-9.3-17.68-36.47-31.82-59.89-15s-18,45-7.53,59.21,27.21,21.8,37.71,36.5c23.81-20.31,12.17-42.51,12.09-53.43S158.67,161.37,169.54,154.33Z" style="fill:#BA68C8"></path><path d="M169.54,154.33c-9.3-17.68-36.47-31.82-59.89-15s-18,45-7.53,59.21,27.21,21.8,37.71,36.5c23.81-20.31,12.17-42.51,12.09-53.43S158.67,161.37,169.54,154.33Z" style="fill:#fff;opacity:0.4"></path><path d="M141.67,238c-9.42-16.3-29.06-25.15-39.55-39.41-7-9.54-11.77-25.32-7.1-39.75-20.61,5.14-33.11,38.08-16,60.92s33,27.92,36.48,46.64S110.44,303.07,93,306.82c11.07,6.39,30.24,7.76,45.72-8.45C148,288.64,156.13,263,141.67,238Z" style="fill:#BA68C8"></path><path d="M141.67,238c-9.42-16.3-29.06-25.15-39.55-39.41-7-9.54-11.77-25.32-7.1-39.75-20.61,5.14-33.11,38.08-16,60.92s33,27.92,36.48,46.64S110.44,303.07,93,306.82c11.07,6.39,30.24,7.76,45.72-8.45C148,288.64,156.13,263,141.67,238Z" style="fill:#fff;opacity:0.25"></path><path d="M90.11,179.28c.23,12.06,6.73,23.21,14.89,32.09s18,16,26.95,24.09c6.24,5.66,12.13,12,16.29,19.27A58.89,58.89,0,0,0,141.67,238c-9.42-16.3-29.06-25.15-39.55-39.41-7-9.54-11.77-25.32-7.1-39.75C91,164.62,90,173.23,90.11,179.28Z" style="fill:#BA68C8"></path><path d="M160.36,161.74c-13.9-5.16-30.75,1.77-38.34,14.51s-6.23,29.78,2,42.14c-4.47,3.38-6,9.55-5.44,15.13s2.91,10.78,4.88,16c3.56,9.47,7,16.48,7.92,27.19.54,6.51-1.06,15-8,17.47a11.57,11.57,0,0,1-10.75-1.45s-7.33,10.78-31.53,7.35c-10.07-1.42-18.61-7.22-24.35-16-4.18-6.37-4.86-14.92-3.48-22.93a30.93,30.93,0,0,0-2.49,11.17c-.58,16.36,13.14,38.08,42.27,34.45,11.07,6.39,30.24,7.76,45.72-8.45,9.3-9.73,17.4-35.4,2.94-60.42-.58-1-1.19-2-1.85-2.92h0c23.81-20.31,12.17-42.51,12.09-53.43-.06-7.42,3.09-14.11,8.52-19.84Z" style="fill:#BA68C8;opacity:0.30000000000000004"></path><path d="M97.62,240c6.66,9.3,9.17,26.77-9.32,30.7-19,4-25-17.78-15.67-24.32-8.43-1.51-21.31,9.73-21.89,26S63.88,310.45,93,306.82C119.14,303.56,127.83,261.7,97.62,240Z" style="fill:#BA68C8"></path><path d="M98.58,240.73c7.68,6.46,17.57,29.52,9.07,47.91-7.9,17.08-40,19.46-54.6-3.35,5,12.79,18.19,24.25,40,21.53C118.85,303.6,127.61,262.64,98.58,240.73Z" style="opacity:0.15"></path><path d="M112.52,292.85c-.72,1-8.48,10.51-31.46,7.26-10.07-1.42-18.61-7.22-24.35-16-4.18-6.37-4.86-14.92-3.48-22.93h0c-.17.4-.34.81-.49,1.22a31,31,0,0,0-2,9.94,34.2,34.2,0,0,0,17.65,30.46,36.54,36.54,0,0,0,14.42,4.22,48.33,48.33,0,0,0,10.2-.23C101.73,305.73,108.49,300.34,112.52,292.85Z" style="opacity:0.15"></path></g><path d="M376.71,334.2c-5.72-18.29-9.6-29.59-9.6-29.59l-47.94,36.17s19.61,18.76,23.63,24-.23,11.7-3.8,19v0l0,.07h0c-1,2.17-.41,4.93,2.07,7.59,4.48,4.8,13.29,7.48,19.68,6,2.87-.66,4.75-2,5.56-3.82h0s6.31-10.21,13.28-21.6S382.42,352.49,376.71,334.2Z" style="fill:#fafafa"></path><path d="M376.71,334.2c-5.72-18.29-9.6-29.59-9.6-29.59l-47.94,36.17s19.61,18.76,23.63,24-.23,11.7-3.8,19v0l0,.07h0c-1,2.17-.41,4.93,2.07,7.59,4.48,4.8,13.29,7.48,19.68,6,2.87-.66,4.75-2,5.56-3.82h0s6.31-10.21,13.28-21.6S382.42,352.49,376.71,334.2Z" style="fill:#BA68C8;opacity:0.30000000000000004"></path><path d="M364.16,331.9c3.81-5,5.65-11,6.27-17.31-2.09-6.4-3.32-10-3.32-10l-47.94,36.17s19.61,18.76,23.63,24-.23,11.7-3.8,19v0l0,.07h0c-1,2.17-.41,4.93,2.07,7.59a17.15,17.15,0,0,0,1.53,1.41,23.9,23.9,0,0,1,2.13-7.87c3-6.39,8.89-11.84,8.91-18.89,0-4.92-3-9.51-2.8-14.43.13-4.07,2.4-7.78,5.08-10.85S361.7,335.15,364.16,331.9Z" style="fill:#BA68C8;opacity:0.35000000000000003"></path><polygon points="338.95 383.93 338.96 383.93 338.95 383.92 338.95 383.93" style="fill:#455a64"></polygon><path d="M339,383.93c-1,2.17-.41,4.93,2.07,7.59,4.48,4.8,13.29,7.48,19.68,6,2.87-.66,4.75-2,5.56-3.82C354.3,397.81,340.66,388.79,339,383.93Z" style="fill:#455a64"></path><path d="M178.67,262.18c-1.19,9-10.43,12.79-14.67,21.59-4.06,8.4,8.84,44.34,10,47.49h0a.32.32,0,0,1,0,.24h0a8.65,8.65,0,0,0,3.94,4.09c5.68,3.28,14.89,3.28,20.57,0,3.42-2,4.77-4.69,4.07-7.25h0c-1.86-6.77-4.13-15.39-3.58-18.79s1.6-4.76,9.94-8,25-9,28.46-30.62Z" style="fill:#fafafa"></path><path d="M178.67,262.18c-1.19,9-10.43,12.79-14.67,21.59-4.06,8.4,8.84,44.34,10,47.49h0a.32.32,0,0,1,0,.24h0a8.65,8.65,0,0,0,3.94,4.09c5.68,3.28,14.89,3.28,20.57,0,3.42-2,4.77-4.69,4.07-7.25h0c-1.86-6.77-4.13-15.39-3.58-18.79s1.6-4.76,9.94-8,25-9,28.46-30.62Z" style="fill:#BA68C8;opacity:0.30000000000000004"></path><g style="opacity:0.35000000000000003"><polygon points="173.98 331.5 173.98 331.5 173.98 331.5 173.98 331.5" style="fill:#BA68C8"></polygon><path d="M237.38,270.91l-58.71-8.73c-1.19,9-10.43,12.79-14.67,21.59-4.06,8.4,8.84,44.34,10,47.49h0a.32.32,0,0,1,0,.24,8.65,8.65,0,0,0,3.94,4.09c4.17,2.41,10.23,3,15.41,1.91-1.67-.36-3.45-.57-5.08-1a18.5,18.5,0,0,1-8.56-4.65c-1.05-1-2-2.31-1.9-3.76.27-2.79,3.92-3.43,6.62-4.16a23.82,23.82,0,0,0,7.08-3.52c2.18-1.52,6.29-5.69,7.42-9.23a9.51,9.51,0,0,1,.07-1.67c.56-3.39,1.6-4.76,9.94-8S233.89,292.48,237.38,270.91Z" style="fill:#BA68C8"></path></g><path d="M198.49,335.59c3.42-2,4.77-4.69,4.07-7.25-5.53,9.59-22.84,8.15-28.58,3.18a8.62,8.62,0,0,0,3.94,4.07C183.6,338.87,192.81,338.87,198.49,335.59Z" style="fill:#455a64"></path><path d="M368.3,258.57l-77.89-81.83a263.24,263.24,0,0,0-37.59-21.43c-18.75-8.77-57.71-15.74-83.28-1-26.36,15.22-41.43,39.43-39.93,70.66S142,275.14,140.8,284.1s-10.43,12.79-14.68,21.59c-4.05,8.4,8.85,44.48,10,47.63h0a8.86,8.86,0,0,0,3.94,4.19c5.68,3.28,14.89,3.28,20.58,0,3.42-2,4.77-4.69,4.07-7.25h0c-1.87-6.77-4.13-15.39-3.58-18.79s1.59-4.75,9.94-8c7.82-3.05,22.9-8.33,27.65-26.73a3.22,3.22,0,0,1,4.75-2c14.12,8.46,22.48,33.12,40.38,48.22l.07.05a47,47,0,0,1,11.95,15.36c7.5,15.38,13.1,30.86,13.93,36.18,1.11,7,.83,28.35.83,34.91,0,3,2.72,5.94,8.15,7.57a22.43,22.43,0,0,0,13-.06c4.45-1.36,7-3.63,7.75-6.06h0c5.06-13.93,8.57-22.27,10.76-31.71,1.23-5.3,2-16.66,2.69-27.7a21.52,21.52,0,0,1,12.32-18A109.61,109.61,0,0,0,341.19,344C376,319.35,369,278.62,368.3,258.57Z" style="fill:#fafafa"></path><path d="M368.3,258.57c-2.72-43-42.7-60.77-77.89-81.83a263.24,263.24,0,0,0-37.59-21.43c-18.75-8.77-57.71-15.74-83.28-1-26.36,15.22-41.43,39.43-39.93,70.66S142,275.14,140.8,284.1s-10.43,12.79-14.68,21.59c-4.05,8.4,8.85,44.48,10,47.63h0a8.86,8.86,0,0,0,3.94,4.19c5.68,3.28,14.89,3.28,20.58,0,3.42-2,4.77-4.69,4.07-7.25h0c-1.87-6.77-4.13-15.39-3.58-18.79s1.59-4.75,9.94-8c7.82-3.05,22.9-8.33,27.65-26.73a3.22,3.22,0,0,1,4.75-2c14.12,8.46,22.48,33.12,40.38,48.22l.07.05a47,47,0,0,1,11.95,15.36c7.5,15.38,13.1,30.86,13.93,36.18,1.11,7,.83,28.35.83,34.91,0,3,2.72,5.94,8.15,7.57a22.43,22.43,0,0,0,13-.06c4.45-1.36,7-3.63,7.75-6.06h0c5.06-13.93,8.57-22.27,10.76-31.71,1.23-5.3,2-16.66,2.69-27.7a21.52,21.52,0,0,1,12.32-18A109.61,109.61,0,0,0,341.19,344C376,319.35,369,278.62,368.3,258.57Z" style="fill:#fafafa"></path><g style="opacity:0.2"><path d="M206.43,147.83c18.82,0,36.28,5,45.51,9.36a263.94,263.94,0,0,1,37.27,21.24l.06,0,.08,0c4,2.41,8.17,4.82,12.19,7.14,15.46,9,31.44,18.2,43.43,29.66,13.44,12.83,20.19,26.61,21.26,43.35.08,2.18.23,4.61.39,7.19.69,10.92,1.55,24.51-1.55,38.36-3.64,16.25-11.84,28.7-25.08,38.08a108.92,108.92,0,0,1-15.64,9.27,23.65,23.65,0,0,0-13.49,19.76c-.69,11.06-1.46,22.28-2.64,27.36-1.65,7.1-4.06,13.57-7.39,22.53-.88,2.37-1.79,4.82-2.77,7.5H298l-.47,1.55c-.58,1.91-2.91,3.62-6.38,4.68a20.41,20.41,0,0,1-6,.89,20.17,20.17,0,0,1-5.79-.84c-4.11-1.23-6.67-3.37-6.67-5.58,0-.91,0-2.09,0-3.47,0-8.92.11-25.53-.87-31.77-.87-5.53-6.51-21.17-14.11-36.76a48.78,48.78,0,0,0-12.49-16l-.06-.06c-8.55-7.21-14.8-16.56-20.85-25.61-6.27-9.38-12.2-18.24-19.8-22.8a5.14,5.14,0,0,0-2.67-.74,5.33,5.33,0,0,0-5.16,4c-4.32,16.75-17.63,21.92-25.58,25l-.81.31c-8.49,3.32-10.49,5-11.24,9.62-.55,3.39,1.05,10.31,3.63,19.67.46,1.71-.67,3.5-3.11,4.91a18.91,18.91,0,0,1-9.25,2.18,19.16,19.16,0,0,1-9.25-2.18,7,7,0,0,1-3-3.09v-.05c-6.66-18.4-12.64-40.64-10.06-46,1.68-3.48,4.3-6.21,6.83-8.85,3.57-3.73,7.27-7.58,8-13.37.55-4.15-1.06-9.66-3.28-17.28-3-10.2-7-24.15-7.9-42.2-.71-14.86,2.39-28.38,9.24-40.19,6.62-11.42,16.6-21,29.65-28.57,9.41-5.43,21.81-8.3,35.86-8.3m0-2.08c-13,0-26.13,2.37-36.89,8.58-26.36,15.22-41.43,39.43-39.93,70.66S142,275.14,140.8,284.1s-10.43,12.79-14.68,21.59c-4.05,8.4,8.84,44.48,10,47.62h0a8.86,8.86,0,0,0,3.94,4.19,22.75,22.75,0,0,0,20.58,0c3.42-2,4.77-4.69,4.07-7.25-1.87-6.77-4.13-15.39-3.58-18.79s1.59-4.75,9.94-8c7.82-3.05,22.9-8.33,27.65-26.73a3.28,3.28,0,0,1,3.15-2.47,3,3,0,0,1,1.6.45c14.12,8.46,22.48,33.12,40.38,48.22l.07.05a47,47,0,0,1,11.95,15.36c7.5,15.38,13.1,30.86,13.93,36.18,1.11,7,.83,28.35.83,34.91,0,3,2.72,5.94,8.15,7.57a22.36,22.36,0,0,0,13-.06c4.45-1.36,7-3.63,7.75-6.06h0c5.06-13.93,8.57-22.27,10.76-31.71,1.23-5.3,2-16.66,2.69-27.7a21.52,21.52,0,0,1,12.32-18A109.61,109.61,0,0,0,341.19,344C376,319.35,369,278.62,368.3,258.57c-2.72-43-42.7-60.77-77.89-81.83a263.24,263.24,0,0,0-37.59-21.43c-10.86-5.08-28.5-9.56-46.39-9.56ZM136.1,353.31h0Zm0,0Zm0,0h0Zm0,0h0Zm0,0Zm0,0Zm0,0h0Zm0,0Zm0,0,0,0,0,0Zm0,0Z" style="fill:#BA68C8"></path></g><path d="M289.19,432.9c-5.17-1.33-9.14-5.89-10.64-11s-.78-10.7,1.06-15.72c1.61-4.41,4.08-9.29,2-13.53-1.56-3.23-5.21-4.77-8.08-6.94a54.48,54.48,0,0,1-10-9.94c3.41,8.48,5.69,15.51,6.2,18.76,1.11,7,.83,28.35.83,34.91,0,2.15,1.42,4.29,4.26,5.93,5.68,3.28,14.89,3.28,20.57,0a9.43,9.43,0,0,0,3.39-3.08A17.37,17.37,0,0,1,289.19,432.9Z" style="fill:#BA68C8;opacity:0.2"></path><path d="M240.17,292.39c1.67-9.82-6.49-1.58-15.2-.61s-12.76-1-16.18-8.91-7.9-16.8-13.09-19.95c5.93,13.35,4.14,24.43,3.11,33.44h0a3.21,3.21,0,0,1,4.62-1.67c14.12,8.46,22.48,33.12,40.38,48.22l.07.05a47.25,47.25,0,0,1,6.91,7.23h.06C243.89,339.87,238.45,302.53,240.17,292.39Z" style="fill:#BA68C8;opacity:0.2"></path><path d="M196.55,302.82c-6.33,8.45-16.73,13.51-27.28,14.93-2.88.39-5.79.55-8.63,1.14a16.14,16.14,0,0,0-7.8,3.62c-1.77,1.63-3,3.78-4.65,5.49-4.09,4.17-8.74,1.55-12.59-1.63a31.29,31.29,0,0,1-9.95-14.89c-.1-.35-.21-.71-.31-1.07,0,12.74,9.78,40.18,10.76,42.91h0a8.86,8.86,0,0,0,3.94,4.19c5.68,3.28,14.89,3.28,20.58,0,3.42-2,4.77-4.69,4.07-7.25h0c-1.87-6.77-4.13-15.39-3.58-18.79s1.59-4.75,9.94-8C177.93,320.77,190.41,316.35,196.55,302.82Z" style="fill:#BA68C8;opacity:0.2"></path><path d="M368.3,258.57a62.68,62.68,0,0,0-13.09-34.95L341,225.39l-40.82,11.2c3,0,23.1,8.45,38.8,6.08,12.87-1.94,15.45,2.84,19,17.54,3.77,15.74-3.12,56.08-29,54.38s-32.1-18.65-33.79-6.49c-1.27,9.1,13.21,22.5,19,40.67,2.67,8.47-2,12.42-1.09,22.22h0a21.52,21.52,0,0,1,12.27-17.55A109.61,109.61,0,0,0,341.19,344C376,319.35,369,278.62,368.3,258.57Z" style="fill:#BA68C8;opacity:0.2"></path><path d="M270.61,429.42c0,2.15,1.42,4.29,4.26,5.93,5.68,3.28,14.89,3.28,20.57,0a8.17,8.17,0,0,0,4-4.48C289.27,437.94,272.45,432.6,270.61,429.42Z" style="fill:#455a64"></path><path d="M160.62,357.51c3.42-2,4.77-4.69,4.07-7.25-5.54,9.59-22.84,8-28.59,3.06a8.91,8.91,0,0,0,3.94,4.19C145.72,360.79,154.93,360.79,160.62,357.51Z" style="fill:#455a64"></path><path id="freepik--Heart--inject-321" d="M174.86,209.11c-.55-7.84-14.38-16.48-22.55-4.51-8.4,12.31,4.64,30.27,9.82,36.13,11.43-1.11,31.24-6.07,32.94-18.55C197,208,183.59,204.07,174.86,209.11Z" style="fill:#BA68C8"></path><path d="M324.78,143.92c-7.23-17.78-12.27-29.71-26.42-37.36s-23.4-8.27-26.44-6.65-.14,6,.2,13.09,1.51,18.48,7.19,22.57S324.78,143.92,324.78,143.92Z" style="fill:#fafafa"></path><g style="opacity:0.2"><path d="M275.89,101.26c2.5,0,9.6.69,21.49,7.12,12.83,7,18,18,24.17,33.09-15.31-1.76-37.5-5-41-7.59s-5.78-9.69-6.33-21a43,43,0,0,0-1-7c-.51-2.39-.78-3.86-.27-4.13a6.8,6.8,0,0,1,3-.48m0-2.08a8.77,8.77,0,0,0-4,.73c-3,1.62-.14,6,.2,13.09s1.51,18.48,7.19,22.57,45.47,8.35,45.47,8.35c-7.23-17.78-12.27-29.71-26.42-37.36-10.19-5.52-17.85-7.38-22.47-7.38Z" style="fill:#BA68C8"></path></g><path d="M302.62,132.78c-4.34-18-26.69-34.73-30.7-32.87-3,1.62-.14,6,.2,13.09s1.51,18.48,7.19,22.57A27.21,27.21,0,0,0,302.62,132.78Z" style="fill:#ffa8a7"></path><path d="M271.92,99.91a2.43,2.43,0,0,0-1,1,5.9,5.9,0,0,1,.75.21c4.55,1.61,8.11,5.13,11.52,8.55a1.88,1.88,0,0,1,.52.73c.23.74-.47,1.42-1.12,1.84-3.21,2.05-7.24,3-10.11,5.34.65,6.68,2.3,14.7,6.86,18a27.21,27.21,0,0,0,23.31-2.79C298.28,114.73,275.93,98.05,271.92,99.91Z" style="fill:#f28f8f"></path><path d="M324.81,113.9c-15.33-2.94-46.92-7-67.39,19.81s-6.28,46.52-11.53,56.25-15.13,2.38-11.84-3.49c-7.88,11.56-2.8,25.21,21.06,23.41s83.5-20,83.23-84.23Z" style="fill:#BA68C8"></path><path d="M324.81,113.9A118.3,118.3,0,0,0,312,112.09c2.78,2.65,1.26,4.37-6,5.26-10.41,1.27-33.9,5-46.18,24.62s-7.12,30.19-7.12,30.19-7.71,17,1,26.53c2.25,2.45,8.62,5.46,16.81,8.57,27.6-7,68.14-28.66,67.92-81.61Z" style="opacity:0.1"></path><path d="M348.25,128.85c-36.65-14.8-77.62,3-87.36,39.83-9.11,34.41-13.84,37.85-18,44.77s-1.55,16.29,7.37,24.57,18.27,7.93,31.35,3.26c13.74-4.9,16.62-5.44,26.95-4s23.82,4.64,36.13-3.51c13.26-7.06,21.15,3.08,23.59,24.78-.74-20,.69-26.29,8.76-49.45S384.9,143.65,348.25,128.85Z" style="fill:#fafafa"></path><path d="M288.53,205c-6.95-8.37-17.9-13.06-28.68-13.73a44.12,44.12,0,0,0-5.75,0c-5,14-8.22,17.19-11.19,22.14-4.15,6.91-1.55,16.29,7.37,24.57s18.27,7.93,31.35,3.26c8.56-3.05,12.9-4.41,17.46-4.65,0-1,0-1.92,0-2.77A47.49,47.49,0,0,0,288.53,205Z" style="fill:#BA68C8"></path><path d="M288.53,205c-6.95-8.37-17.9-13.06-28.68-13.73a44.12,44.12,0,0,0-5.75,0c-5,14-8.22,17.19-11.19,22.14-4.15,6.91-1.55,16.29,7.37,24.57s18.27,7.93,31.35,3.26c8.56-3.05,12.9-4.41,17.46-4.65,0-1,0-1.92,0-2.77A47.49,47.49,0,0,0,288.53,205Z" style="fill:#fff;opacity:0.4"></path><path d="M296.36,219a16.2,16.2,0,0,1-2,9,15.31,15.31,0,0,1-8.29,6.32c-4,1.35-9.66,1.92-13.58.14-2.9-1.32-5-3.93-7.19-6.19-3.1-3.11-6.11-6.79-10.1-8.64-4.3-2-8.71-3.3-13.72-2.76-1.72,6.41,1.3,14.16,8.81,21.13,8.93,8.28,18.27,7.93,31.35,3.26,8.56-3.05,12.9-4.41,17.46-4.65,0-1,0-1.92,0-2.77A49.2,49.2,0,0,0,296.36,219Z" style="fill:#BA68C8;opacity:0.30000000000000004"></path><path d="M270.76,223.88c.29,1.75,2,1.39,3.23.09a16.35,16.35,0,0,1,2.15-1.62c1.28-.95,2.38-3.24,1-4.63-1.09-1.12-3.31.25-4.17,1.05a6.86,6.86,0,0,0-2.26,4.3A3.43,3.43,0,0,0,270.76,223.88Z"></path><path d="M328.63,139.64l-4.28-20.52s-26.55-2.84-46.14,9.73-24.51,30-22.51,43.25c5.56-8,17.31-15.51,33.3-14.82S325.71,151.75,328.63,139.64Z" style="fill:#BA68C8"></path><path d="M328.63,139.64l-4.28-20.52s-26.55-2.84-46.14,9.73-24.51,30-22.51,43.25c5.56-8,17.31-15.51,33.3-14.82S325.71,151.75,328.63,139.64Z" style="fill:#fff;opacity:0.25"></path><path d="M289,157.28c16,.7,36.71-5.53,39.63-17.64l-1.45-6.94c-4.07,7.82-25,12.12-39.16,13.47S256.68,154,255.7,172.1C261.26,164.05,273,156.59,289,157.28Z" style="fill:#BA68C8"></path><path d="M274.65,149c6.61,1.05,11.47-2.87,16.28-5.67s8.19-1.23,9.87.7c3.19,4.06,2.2,9.43-4.86,13.87-6,3.76-12.64,4.73-17.5,2.27C273.35,157.6,273.43,152.37,274.65,149Z" style="fill:#fff"></path><g style="opacity:0.2"><path d="M295.88,142.81a5.44,5.44,0,0,1,4.14,1.84,6.4,6.4,0,0,1,1.42,5.11c-.45,2.57-2.53,5.09-6,7.29a21.2,21.2,0,0,1-10.94,3.47,12.21,12.21,0,0,1-5.58-1.24c-4.76-2.41-4.09-7.15-3.54-9.18.5.05,1,.07,1.49.07,4.87,0,8.72-2.37,12.43-4.67.73-.45,1.44-.89,2.16-1.31a8.91,8.91,0,0,1,4.45-1.38m0-1a9.88,9.88,0,0,0-4.95,1.52c-4.26,2.48-8.56,5.84-14.09,5.84a13.82,13.82,0,0,1-2.19-.17c-1.22,3.37-1.3,8.6,3.79,11.17a13.34,13.34,0,0,0,6,1.35,22.11,22.11,0,0,0,11.47-3.62c7.06-4.44,8.05-9.81,4.86-13.87a6.41,6.41,0,0,0-4.92-2.22Z" style="fill:#BA68C8"></path></g><path d="M290.93,143.33c-4.81,2.8-9.67,6.72-16.28,5.67-3.18-.75-7.72-4.4-5.15-10.44,5.15,1,8.49-1.08,12.25-2.27s12.2-2.22,14.42,5.52A9.76,9.76,0,0,0,290.93,143.33Z" style="fill:#fff"></path><g style="opacity:0.2"><path d="M287,136.46c3.87,0,6.48,1.49,7.77,4.42a12,12,0,0,0-4.36,1.59c-.73.42-1.46.87-2.2,1.33-3.48,2.15-7.07,4.37-11.38,4.37a12.35,12.35,0,0,1-2-.16,7.15,7.15,0,0,1-4.5-3.49,6.13,6.13,0,0,1-.2-4.83,14.59,14.59,0,0,0,2.06.15,20.3,20.3,0,0,0,7.47-1.74c.81-.31,1.58-.61,2.38-.86a16.87,16.87,0,0,1,5-.78m0-1a17.67,17.67,0,0,0-5.26.83c-3.06,1-5.84,2.55-9.55,2.55a13.18,13.18,0,0,1-2.7-.28c-2.57,6,2,9.69,5.15,10.44a13.82,13.82,0,0,0,2.19.17c5.53,0,9.83-3.36,14.09-5.84a9.94,9.94,0,0,1,5-1.52h.27c-1.44-5-5.47-6.35-9.16-6.35Z" style="fill:#BA68C8"></path></g><path d="M281.75,136.29c-3.76,1.19-7.1,3.3-12.25,2.27-4.33-.85-6.55-4.35-5.9-8.69,3.19,1.36,7.52.54,12-.63s11.62-.13,13.6,6.4A18.2,18.2,0,0,0,281.75,136.29Z" style="fill:#fff"></path><g style="opacity:0.2"><path d="M279,129.82c1.58,0,6.51.36,8.7,4.66h-.55a21.11,21.11,0,0,0-5.7.86c-.85.27-1.68.59-2.49.9a18.23,18.23,0,0,1-6.75,1.61,12,12,0,0,1-2.5-.26,6,6,0,0,1-5.21-6.35,12.55,12.55,0,0,0,3.06.35,35.2,35.2,0,0,0,8.32-1.37,12.18,12.18,0,0,1,3.12-.39m0-1a13.29,13.29,0,0,0-3.37.42,33.54,33.54,0,0,1-8.07,1.34,10.07,10.07,0,0,1-3.95-.71c-.65,4.34,1.57,7.84,5.9,8.69a13.18,13.18,0,0,0,2.7.28c3.7,0,6.49-1.58,9.55-2.55a19.75,19.75,0,0,1,5.39-.82,12.16,12.16,0,0,1,2.08.17c-1.53-5-6.14-6.82-10.23-6.82Z" style="fill:#BA68C8"></path></g><path d="M275.62,129.24c-4.5,1.17-8.83,2-12,.63a7.28,7.28,0,0,1-4.31-8c2.53.91,6.13,1,9.95.54,6.06-.71,11.23,1.65,12.37,6.7A16.67,16.67,0,0,0,275.62,129.24Z" style="fill:#fff"></path><g style="opacity:0.2"><path d="M260.19,123.14a20.73,20.73,0,0,0,4.81.5,35.85,35.85,0,0,0,4.36-.28,18.69,18.69,0,0,1,2-.11c4.34,0,7.54,1.71,8.86,4.66-.36,0-.74,0-1.12,0a16,16,0,0,0-3.7.39,32.73,32.73,0,0,1-7.81,1.31A9.17,9.17,0,0,1,264,129a6.13,6.13,0,0,1-3.78-5.81m-.9-1.31a7.28,7.28,0,0,0,4.31,8,10.07,10.07,0,0,0,3.95.71,33.46,33.46,0,0,0,8.07-1.34,14.87,14.87,0,0,1,3.44-.36,16.55,16.55,0,0,1,2.55.19c-1-4.46-5.16-6.82-10.29-6.82a18.53,18.53,0,0,0-2.08.12,37,37,0,0,1-4.24.27,17.32,17.32,0,0,1-5.71-.81Z" style="fill:#BA68C8"></path></g><path d="M255.32,114.28c1.6.91,3.89,1.68,7.86,1.56,6.36-.18,10.79,2.83,10.76,6.63a18,18,0,0,0-4.95-.07c-3.11.39-7,.42-9.7-.57S254.83,117.43,255.32,114.28Z" style="fill:#fff"></path><g style="opacity:0.2"><path d="M256.25,115.84a16.45,16.45,0,0,0,6.17,1h1.3c3.37,0,6.24,1,7.89,2.62a4.43,4.43,0,0,1,1.16,1.88c-.62,0-1.25-.08-1.85-.08a11.84,11.84,0,0,0-2.08.15,31.1,31.1,0,0,1-3.82.24,16,16,0,0,1-5.38-.76,5.82,5.82,0,0,1-3.39-5m-.93-1.56c-.49,3.15,1.24,6.53,4,7.55a17,17,0,0,0,5.73.82,31.32,31.32,0,0,0,4-.25,10.67,10.67,0,0,1,1.93-.14,22.61,22.61,0,0,1,3,.21c0-3.69-4.15-6.63-10.22-6.63h-1.3a13.73,13.73,0,0,1-7.1-1.57Z" style="fill:#BA68C8"></path></g><path d="M266.81,116.11c.17-2.45-1.66-3.71-5.86-7.42l-9.67-8.56c-2-1.82-4.67-.64-3.37,2.32.49,1.11,1,1.93,3.74,7.34,1,1.92,2.15,3.69,3.67,4.49a10.24,10.24,0,0,0,4.15,1.45C262.51,116.22,263,115.62,266.81,116.11Z" style="fill:#fff"></path><g style="opacity:0.2"><path d="M249.26,100.27a2.16,2.16,0,0,1,1.36.61l2.22,2,7.45,6.6,1.38,1.21c2.52,2.2,3.67,3.25,4,4.33-.64,0-1.24-.08-1.85-.08l-1,0-.87,0a14,14,0,0,1-2.3-.2,9.72,9.72,0,0,1-3.72-1.26l-.12-.08c-1.1-.58-2.16-1.91-3.24-4.06-1.37-2.7-2.18-4.26-2.72-5.29s-.77-1.48-1-2a1.76,1.76,0,0,1-.15-1.53.66.66,0,0,1,.58-.25m0-1c-1.31,0-2.23,1.18-1.35,3.18.49,1.11,1,1.93,3.74,7.34,1,1.92,2.15,3.69,3.67,4.49a10.24,10.24,0,0,0,4.15,1.45,14.48,14.48,0,0,0,2.46.21c.63,0,1.2,0,1.91,0a22.07,22.07,0,0,1,3,.21c.17-2.45-1.66-3.71-5.86-7.42l-9.67-8.56a3.1,3.1,0,0,0-2-.86Z" style="fill:#BA68C8"></path></g><path d="M265,135.92a7.35,7.35,0,0,0,4.52,2.64c5.15,1,8.49-1.08,12.25-2.27a18.2,18.2,0,0,1,7.47-.65c-4.33-3.3-8.41-2-12.05-.67C274,136.17,269.05,137.71,265,135.92Zm4.78,9.59a8.26,8.26,0,0,0,4.89,3.49c6.61,1.05,11.47-2.87,16.28-5.67a9.76,9.76,0,0,1,5.24-1.52c-4.1-3.14-8.09-.7-14.3,2.39C277.06,146.6,272.88,147.13,269.76,145.51Zm-13.69-26.72a6.11,6.11,0,0,0,3.22,3c2.66,1,6.59,1,9.7.57a18,18,0,0,1,4.95.07c-2.52-3.62-6.73-2.56-11.34-2.52C259.6,120,257.55,119.59,256.07,118.79Zm-7.74-15.45c.49,1,1.3,2.44,3.32,6.45,1,1.92,2.15,3.69,3.67,4.49a10.24,10.24,0,0,0,4.15,1.45c3,.49,3.52-.11,7.34.38-1.2-3-4.74-2.38-7.84-3.42S252.21,110.72,248.33,103.34Zm11.78,23.43a6.74,6.74,0,0,0,3.49,3.1c3.19,1.36,7.52.54,12-.63a16.67,16.67,0,0,1,6-.17c-3.32-3.46-7.09-2.73-12.17-1.55C265.68,128.39,262.39,128.25,260.11,126.77ZM274,152.11a7.88,7.88,0,0,0,4.45,8.06c4.86,2.46,11.49,1.49,17.5-2.27,6.68-4.2,7.92-9.24,5.33-13.2,0,4.85-5.81,10.27-13.93,12S274.62,156.22,274,152.11Z" style="fill:#BA68C8;opacity:0.2"></path><circle cx="348" cy="203.04" r="11.93" transform="translate(-51.21 148.63) rotate(-22.5)" style="fill:#BA68C8;opacity:0.2"></circle><path d="M312.29,204c-3.35-13.29,2.29-27.9,15-31.05s18.77,4.57,21.26,7.35c1.06,5-.09,16.86-9.75,22.56C330,208.05,320.64,207.42,312.29,204Z" style="fill:#fff"></path><path d="M343.67,185.1a19.53,19.53,0,0,0-3.87-11.67,19.94,19.94,0,0,0-12.48-.51c-11.58,2.86-17.29,15.2-15.72,27.39a19.63,19.63,0,0,0,32.07-15.21Z" style="fill:#BA68C8"></path><path d="M337.42,185.1a13.39,13.39,0,0,1-26,4.56c.81-11.16,9-17,17.8-16.9A13.4,13.4,0,0,1,337.42,185.1Z" style="fill:#37474f"></path><path d="M312.29,204c-1.5-6.65.62-21.61,10.18-26.1,11.67-5.5,20.6.22,27.59,4.87,9.95.73,14.18-6.25,13.72-9.8-5,4.37-10,4.07-14.74,3.6,3.64-2.11,7.1-6.87,6.12-11.07-2.36,5.41-9.69,5.53-14.84,5.18s-13.67-2.37-22.55,4.7C311,180.73,307.37,192.87,312.29,204Z" style="fill:#263238"></path><path d="M348.86,180.73c-.3,1.31-.35,2.68-.6,4s-.56,2.66-.94,4a27.65,27.65,0,0,1-2.88,6.84,23.34,23.34,0,0,1-8.86,8.25,32,32,0,0,1-6.54,2.59s-.05.09,0,.09a20.17,20.17,0,0,0,11.88-5,24.44,24.44,0,0,0,7.4-11.24,42.58,42.58,0,0,0,1.22-4.56,20.15,20.15,0,0,0,.66-4.75C350.16,180.25,349,180.06,348.86,180.73Z" style="fill:#263238"></path><path d="M332.29,180.42a1.61,1.61,0,1,1-1.61-1.61A1.61,1.61,0,0,1,332.29,180.42Z" style="fill:#f5f5f5"></path><path d="M328.71,185.13a4.28,4.28,0,1,1-4.28-4.28A4.29,4.29,0,0,1,328.71,185.13Z" style="fill:#f5f5f5"></path><path d="M328.63,139.64c.83,14.82-1.81,29.34-21.23,36.5s-46.09.54-53.3,15.17c-4.39-16.87,8.21-34.46,23.68-38.57C297.29,147.55,312.79,153.93,328.63,139.64Z" style="fill:#BA68C8"></path><path d="M328.63,139.64c.83,14.82-1.81,29.34-21.23,36.5s-46.09.54-53.3,15.17c-4.39-16.87,8.21-34.46,23.68-38.57C297.29,147.55,312.79,153.93,328.63,139.64Z" style="fill:#fff;opacity:0.4"></path><path d="M307.4,176.14c13.73-5.06,19.06-13.8,20.72-23.73-6.78,19.83-30.79,20.91-45.55,20.64-15.83-.29-26.87,5.79-28.47,18.26C261.31,176.68,288,183.31,307.4,176.14Z" style="fill:#BA68C8;opacity:0.30000000000000004"></path><path d="M376.49,156.71c-4.72-20.57-8.08-34.39-22.07-45.18S330.49,98.44,326.9,99.66s-1.22,6.53-2.09,14.24-1.61,20.3,3.82,25.74S376.49,156.71,376.49,156.71Z" style="fill:#fafafa"></path><g style="opacity:0.2"><path d="M376.49,156.71c-4.72-20.56-8.08-34.39-22.08-45.19-11.8-9.1-20.72-12.16-25.37-12.16a6.42,6.42,0,0,0-2.13.3c-3.59,1.21-1.23,6.53-2.1,14.24-.1.91-.2,1.9-.29,2.94h2.08c.08-.88.17-1.78.27-2.71a46,46,0,0,0,.12-7.78c-.16-3.34-.09-4.5.58-4.73a4.77,4.77,0,0,1,1.47-.19c4.31,0,12.9,3.09,24.11,11.74C366,123.08,369.23,136,373.32,153.7l1.24,3.79c7.31,17.75,4.86,38.54.54,50.95-5.32,15.29-7.81,23.28-8.67,32.79-3.85-9.34-9.36-11.74-14-11.74a18.66,18.66,0,0,0-8.7,2.47l-.09,0-.09.05a31.63,31.63,0,0,1-18,5A89.17,89.17,0,0,1,312,235.72c-1.08-.16-2.13-.33-3.15-.47a58.6,58.6,0,0,0-8.28-.74c-.5,0-1,0-1.48,0,0,.67,0,1.37,0,2.08.49,0,1,0,1.5,0a59.28,59.28,0,0,1,8,.71c5.07.73,10.9,1.86,17,1.86a33.74,33.74,0,0,0,19.16-5.36,16.48,16.48,0,0,1,7.72-2.23c8.63,0,13.93,9.91,15.86,27-.73-20.07.69-26.3,8.76-49.46C381.91,195.19,383.76,174.34,376.49,156.71Z" style="fill:#BA68C8"></path></g><path d="M354.42,140.72c-1.54-20.35-22.84-42.38-27.52-41.06-3.58,1.22-1.22,6.53-2.09,14.24s-1.61,20.3,3.82,25.74A29.93,29.93,0,0,0,354.42,140.72Z" style="fill:#ffa8a7"></path><path d="M335.73,142.08l-.91,0a29.64,29.64,0,0,0,19.6-1.34c-1.54-20.35-22.84-42.38-27.52-41.06a2.6,2.6,0,0,0-1.74,1.76,9.08,9.08,0,0,1,5,1.54,21.2,21.2,0,0,1,5.33,5.67c4.51,6.35,8.46,13.33,9.73,21,.41,2.51.51,5.21-.63,7.48C343,140.32,339.29,142,335.73,142.08Z" style="fill:#f28f8f"></path></g></g><g id="freepik--Sparkles--inject-321"><g id="freepik--sparkles--inject-321"><path d="M179.47,64.43c0,2.64.07,5.18,3.88,5.77-4,0-3.72,2.49-3.92,5.66-.1-3.17-.38-5.46-3.52-5.61C179.15,69.72,179.07,68.21,179.47,64.43Z" style="fill:#f0f0f0"></path><path d="M42.68,35.56c0,2.64.07,5.18,3.88,5.77-4,0-3.72,2.48-3.92,5.66-.11-3.18-.39-5.46-3.53-5.61C42.36,40.85,42.27,39.34,42.68,35.56Z" style="fill:#f0f0f0"></path><path d="M207.87,74.71C207.81,80,208,85,215.61,86.23c-8-.11-7.43,5-7.82,11.3-.22-6.35-.77-10.9-7-11.2C207.23,85.26,207.06,82.26,207.87,74.71Z" style="fill:#f0f0f0"></path><path d="M75.05,52.12c0,4.65-.12,9.13-6.83,10.17,7.09-.09,6.56,4.38,6.9,10,.19-5.6.68-9.62,6.21-9.88C75.61,61.44,75.77,58.79,75.05,52.12Z" style="fill:#f0f0f0"></path><path d="M258.38,39.08c0,3.51-.09,6.9-5.17,7.69,5.37-.08,5,3.31,5.23,7.54.14-4.23.51-7.27,4.69-7.47C258.81,46.12,258.92,44.12,258.38,39.08Z" style="fill:#f0f0f0"></path><path d="M135,21.71c.08,6.87-.17,13.47-10.09,15,10.48-.14,9.69,6.46,10.2,14.73.28-8.27,1-14.21,9.17-14.6C135.85,35.46,136.07,31.55,135,21.71Z" style="fill:#f0f0f0"></path><path d="M120.17,91.78c0,2.6-.07,5.1-3.82,5.68,4,0,3.67,2.45,3.86,5.58.11-3.13.38-5.38,3.47-5.52C120.48,97,120.57,95.51,120.17,91.78Z" style="fill:#f0f0f0"></path><path d="M37.16,102c.05,4.43-.11,8.69-6.51,9.68,6.76-.09,6.25,4.17,6.58,9.51.18-5.34.65-9.17,5.91-9.42C37.7,110.91,37.84,108.39,37.16,102Z" style="fill:#f0f0f0"></path><path d="M65.77,131.93c0,2.54-.07,5-3.73,5.55,3.87,0,3.58,2.39,3.77,5.45.1-3.06.37-5.25,3.39-5.4C66.08,137,66.16,135.57,65.77,131.93Z" style="fill:#f0f0f0"></path><path d="M392.33,78.8c0,2.64-.07,5.18-3.88,5.77,4,0,3.72,2.48,3.92,5.66.11-3.18.38-5.46,3.52-5.61C392.65,84.09,392.73,82.58,392.33,78.8Z" style="fill:#f0f0f0"></path><path d="M467.42,57c-.05,4.65.12,9.12,6.83,10.17-7.09-.1-6.56,4.38-6.9,10-.19-5.6-.68-9.62-6.21-9.89C466.85,66.31,466.7,63.66,467.42,57Z" style="fill:#f0f0f0"></path><path d="M302.89,68.55c0,3.52.09,6.9,5.17,7.69-5.37-.07-5,3.31-5.23,7.55-.14-4.24-.51-7.27-4.69-7.48C302.46,75.6,302.35,73.59,302.89,68.55Z" style="fill:#f0f0f0"></path><path d="M343.87,27.13c-.08,6.86.17,13.47,10.09,15-10.48-.14-9.69,6.47-10.2,14.74-.28-8.27-1-14.21-9.17-14.6C343,40.88,342.81,37,343.87,27.13Z" style="fill:#f0f0f0"></path><path d="M442,30.23c0,2.6.06,5.1,3.82,5.68-4,0-3.67,2.44-3.86,5.57-.11-3.13-.38-5.37-3.47-5.52C441.7,35.43,441.62,34,442,30.23Z" style="fill:#f0f0f0"></path><path d="M422.5,96.16c-.07,6.19.16,12.15,9.09,13.54-9.44-.13-8.72,5.82-9.19,13.28-.25-7.46-.9-12.81-8.26-13.16C421.75,108.56,421.55,105,422.5,96.16Z" style="fill:#f0f0f0"></path><path d="M463.28,141.74c0,2.54.06,5,3.73,5.56-3.87-.06-3.58,2.39-3.77,5.44-.1-3.05-.37-5.25-3.39-5.39C463,146.83,462.89,145.38,463.28,141.74Z" style="fill:#f0f0f0"></path></g></g></svg>
