<svg xmlns="http://www.w3.org/2000/svg" viewBox="0 0 500 500"><g id="freepik--background-complete--inject-140"><g><g><g><path d="M443.92,308.315h-180.746c-3.232,0-5.862-2.63-5.862-5.862V39.179c0-3.232,2.63-5.862,5.862-5.862h180.746c3.232,0,5.862,2.629,5.862,5.862V302.452c0,3.233-2.63,5.862-5.862,5.862ZM263.174,33.567c-3.095,0-5.612,2.518-5.612,5.612V302.452c0,3.095,2.518,5.612,5.612,5.612h180.746c3.095,0,5.612-2.517,5.612-5.612V39.179c0-3.094-2.518-5.612-5.612-5.612h-180.746Z" style="fill:#e0e0e0;"></path><path d="M235.493,308.315H54.746c-3.232,0-5.862-2.63-5.862-5.862V39.179c0-3.232,2.629-5.862,5.862-5.862H235.493c3.232,0,5.862,2.629,5.862,5.862V302.452c0,3.233-2.63,5.862-5.862,5.862ZM54.746,33.567c-3.094,0-5.612,2.518-5.612,5.612V302.452c0,3.095,2.518,5.612,5.612,5.612H235.493c3.095,0,5.612-2.517,5.612-5.612V39.179c0-3.094-2.518-5.612-5.612-5.612H54.746Z" style="fill:#e0e0e0;"></path></g><rect x="0" y="369.384" width="500" height=".25" style="fill:#e0e0e0;"></rect></g><rect x="51.672" y="383.649" width="16.06" height=".25" style="fill:#e0e0e0;"></rect><rect x="170.352" y="380.939" width="53.53" height=".25" style="fill:#e0e0e0;"></rect><rect x="68.732" y="392.939" width="36.25" height=".25" style="fill:#e0e0e0;"></rect><rect x="378.352" y="380.809" width="43.19" height=".25" style="fill:#e0e0e0;"></rect><rect x="430.452" y="380.809" width="6.33" height=".25" style="fill:#e0e0e0;"></rect><rect x="316.212" y="387.039" width="53.89" height=".25" style="fill:#e0e0e0;"></rect></g><path d="M261.741,442.262l-9.184-141.105,.311-.022,10.43,141.018c-.519,.039-1.037,.075-1.557,.109Zm-28.5-.098l-1.356-.105,11.276-140.952,.51,.039-10.43,141.018Zm58.763-4.228l-30.851-137.997,.669-.15,31.339,137.886-1.157,.261Zm-88.606-.223l-1.331-.307,32.131-137.704,.492,.113-31.293,137.897Zm117.369-8.447l-50.789-131.967,.37-.144,51.794,131.575c-.457,.181-.915,.359-1.375,.536Zm-146.287-.444l-1.269-.502,52.372-131.346,.478,.189-51.582,131.659Zm173.694-12.555l-70.156-122.772,.471-.271,70.832,122.384-1.148,.659Zm-200.99-.592c-.42-.242-.839-.487-1.257-.733l71.676-121.89,.363,.212-70.783,122.411Zm225.871-16.155l-87.362-111.187,.271-.215,88.283,110.458c-.396,.317-.794,.632-1.192,.944Zm-250.739-.805c-.439-.35-.877-.702-1.313-1.056l89.246-109.681,.146,.117-88.079,110.62Zm273.062-19.626l-103.055-96.822,.327-.35,103.679,96.154-.951,1.018Zm-295.204-.897l-.887-.96,104.079-95.72,.382,.413-103.574,96.266Zm314.081-22.407l-116.096-80.727,.172-.25,116.814,79.683c-.295,.433-.591,.862-.89,1.293Zm-332.889-1.115c-.279-.408-.558-.818-.833-1.228l117.299-78.967,.215,.317-116.68,79.878Zm348.32-25.139l-127.053-62.068,.289-.593,127.296,61.568-.532,1.094Zm-363.466-.992c-.217-.448-.432-.898-.646-1.348l127.787-60.542,.16,.333-127.301,61.556Zm374.647-26.914l-134.795-42.719,.102-.331,135.15,41.585c-.151,.488-.303,.977-.458,1.465Zm-385.744-1.274c-.141-.458-.281-.914-.419-1.372l135.405-40.747,.127,.417-135.114,41.702Zm392.699-28.352l-139.729-21.689,.078-.517,139.855,20.874-.203,1.333Zm-399.423-1.094c-.072-.479-.142-.957-.211-1.436l139.973-20.056,.061,.414-139.823,21.078Zm401.843-28.685l-141.398-1.255v-.584h141.404v.276c0,.522-.002,1.043-.006,1.563Zm-262.698-1.425H46.141l.003-1.303,141.401,.734v.569Zm120.66-9.044l-.044-.298,139.792-21.281c.079,.517,.156,1.035,.23,1.553l-139.978,20.027Zm-119.991-.21l-139.889-20.639c.072-.489,.146-.978,.222-1.466l139.725,21.721-.058,.384Zm118.104-8.332l-.198-.645,135.095-41.761,.352,1.144-135.249,41.262Zm-116.135-.368L55.015,181.316l.415-1.335,134.896,42.401-.143,.46Zm112.889-8.083l-.243-.507,127.261-61.639,.565,1.174-127.583,60.972Zm-109.625-.272l-127.377-61.399,.572-1.178,127.053,62.068-.248,.509Zm105.18-7.545l-.362-.532,116.68-79.878,.689,1.012-117.007,79.398Zm-100.615-.37L81.134,126.986c.273-.402,.548-.802,.825-1.202l116.29,80.445-.236,.343Zm94.765-7.035l-.179-.192,103.471-96.378c.365,.393,.729,.787,1.091,1.182l-104.383,95.388Zm-89.084-.089L99.918,103.398c.329-.355,.66-.71,.992-1.063l103.068,96.809-.284,.304Zm82.505-6.063l-.312-.25,88.079-110.62c.384,.305,.768,.613,1.15,.922l-88.916,109.948Zm-75.818-.153L121.971,82.876c.396-.317,.793-.632,1.191-.946l87.491,111.086-.272,.216Zm68.409-4.967l-.408-.237,70.626-122.502,1.212,.704-71.431,122.035Zm-60.932-.151l-70.989-122.292c.419-.243,.839-.484,1.259-.725l70.088,122.811-.358,.206Zm52.748-3.851l-.37-.147,51.511-131.687c.46,.18,.919,.361,1.375,.544l-52.516,131.289Zm-44.602-.088L174.028,52.671c.464-.184,.929-.365,1.395-.544l50.928,131.913-.347,.136Zm36.055-2.592l-.372-.085,31.05-137.952c.485,.109,.969,.22,1.453,.333l-32.13,137.704Zm-27.526-.047l-31.537-137.841c.491-.112,.983-.223,1.477-.332l30.41,138.094-.35,.079Zm18.549-1.338l-.398-.03,10.223-141.033c.49,.035,.979,.073,1.467,.112l-11.292,140.951Zm-9.586-.015l-10.653-141.001c.488-.037,.977-.072,1.467-.105l9.586,141.078-.4,.028Z" style="fill:#e6e6e6;"></path><polygon points="86.858 104.033 90.355 119.198 105.521 122.696 90.355 126.194 86.858 141.359 83.36 126.194 68.194 122.696 83.36 119.198 86.858 104.033" style="fill:#f0f0f0;"></polygon><polygon points="129.548 172.118 131.625 181.121 140.628 183.198 131.625 185.275 129.548 194.279 127.471 185.275 118.467 183.198 127.471 181.121 129.548 172.118" style="fill:#f0f0f0;"></polygon><polygon points="151.518 98.865 152.751 104.211 158.096 105.444 152.751 106.677 151.518 112.022 150.285 106.677 144.939 105.444 150.285 104.211 151.518 98.865" style="fill:#f0f0f0;"></polygon><polygon points="176.731 306.268 180.228 321.433 195.394 324.931 180.228 328.429 176.731 343.594 173.233 328.429 158.067 324.931 173.233 321.433 176.731 306.268" style="fill:#f0f0f0;"></polygon><polygon points="421.542 84.827 424.179 96.258 435.61 98.895 424.179 101.531 421.542 112.962 418.906 101.531 407.475 98.895 418.906 96.258 421.542 84.827" style="fill:#f0f0f0;"></polygon><polygon points="59.702 331.52 62.339 342.95 73.77 345.587 62.339 348.223 59.702 359.654 57.066 348.223 45.635 345.587 57.066 342.95 59.702 331.52" style="fill:#f0f0f0;"></polygon><polygon points="356.951 253.337 360.448 268.502 375.614 272 360.448 275.498 356.951 290.663 353.453 275.498 338.287 272 353.453 268.502 356.951 253.337" style="fill:#f0f0f0;"></polygon><polygon points="94.44 267.227 95.861 273.388 102.022 274.809 95.861 276.231 94.44 282.392 93.019 276.231 86.857 274.809 93.019 273.388 94.44 267.227" style="fill:#e6e6e6;"></polygon><polygon points="387.129 338.004 388.55 344.166 394.712 345.587 388.55 347.008 387.129 353.169 385.708 347.008 379.546 345.587 385.708 344.166 387.129 338.004" style="fill:#e6e6e6;"></polygon><polygon points="415.145 222.748 416.566 228.91 422.728 230.331 416.566 231.752 415.145 237.913 413.724 231.752 407.563 230.331 413.724 228.91 415.145 222.748" style="fill:#e6e6e6;"></polygon><polygon points="387.129 151.266 388.55 157.427 394.712 158.848 388.55 160.269 387.129 166.431 385.708 160.269 379.546 158.848 385.708 157.427 387.129 151.266" style="fill:#e6e6e6;"></polygon><polygon points="359.16 73.177 360.581 79.338 366.742 80.759 360.581 82.181 359.16 88.342 357.739 82.181 351.577 80.759 357.739 79.338 359.16 73.177" style="fill:#f0f0f0;"></polygon></g><g id="freepik--Shadow--inject-140"><path d="M338.268,461.935c0,5.336-39.519,9.662-88.268,9.662s-88.268-4.326-88.268-9.662,39.519-9.662,88.268-9.662,88.268,4.326,88.268,9.662Z" style="fill:#f5f5f5;"></path></g><g id="freepik--Speech_Bubble--inject-140"><g><g><path d="M177.283,58.424c10.4-8.048,25.355-6.141,33.403,4.26,6.213,8.029,6.469,18.761,1.488,26.946l2.081,6.842-7.529-.642c-.104,.083-.194,.176-.3,.257-10.4,8.048-25.355,6.14-33.402-4.26-8.048-10.4-6.141-25.355,4.259-33.403Z" style="fill:#407BFF;"></path><path d="M165.028,77.501c-.264,0-.485-.207-.499-.474-.413-7.867,3.461-15.91,9.87-20.492,.226-.161,.538-.108,.698,.116,.161,.225,.109,.537-.116,.698-6.138,4.388-9.849,12.092-9.453,19.625,.014,.276-.198,.511-.473,.526h-.027Z" style="fill:#407BFF;"></path><path d="M165.985,84.498c-.196,0-.383-.117-.462-.31-.474-1.15-.71-2.416-.683-3.659,.006-.276,.241-.471,.511-.489,.276,.006,.495,.235,.489,.511-.024,1.107,.186,2.232,.607,3.256,.105,.255-.017,.547-.272,.653-.062,.025-.127,.038-.19,.038Z" style="fill:#407BFF;"></path></g><path d="M182.245,70.459c1.627-1.311,3.408-1.321,5.147-.798,1.356,.408,2.18,1.322,3.167,2.443,.457,.52,.923,1.361,1.288,2.27,.364-.909,.83-1.75,1.288-2.27,.987-1.121,1.811-2.035,3.167-2.443,1.739-.523,3.52-.514,5.147,.798,1.528,1.232,1.778,3.503,1.325,5.414-.453,1.91-1.711,3.851-2.942,5.266-2.581,2.965-4.869,5.209-7.986,6.828-3.863-2.212-5.405-3.863-7.986-6.828-1.231-1.414-2.489-3.355-2.942-5.266-.453-1.91-.203-4.182,1.325-5.414Z" style="fill:#fff;"></path></g></g><g id="freepik--Character--inject-140"><g><g><path d="M288.11,338.751l-1.148,106.118-.429,11.082-9.293-.459-3.609-19.336s-10.662-36.775-12.93-69.936c-.511-7.638,1.563-16.544,.595-22.575-.844-5.293-3.236-8.604-6.624-20.545-4.08-14.502-8.297-33.91-7.26-49.041,0,0-17.756-16.206-13.207-38.297l46.3-10.756,7.606,113.743Z" style="fill:#ffb5af;"></path><path d="M248.977,297.747l1.129-5.308,4.214-.112-3.772,13.922c-.611-2.978-1.151-5.839-1.571-8.502Z" style="opacity:.3;"></path><path d="M275.326,449.68c-.138,.276-11.428-53.713-12.131-61.601h24.544l.371,64.098-8.264,3.774-4.52-6.271Z" style="fill:#407BFF;"></path><g><path d="M289.56,445.626l-4.232-.057c-.958-.013-1.85,.46-2.426,1.225-2.485,3.3-4.303,2.016-6.916-1.153-1.685-.219-2.165,1.711-2.31,2.23l-3.318,11.467c-.288,.957,.255,1.967,1.213,2.254,.17,.051,.347,.077,.525,.077,5.139,.069,7.571,.101,13.968,.186l19.564,.261c5.333,.071,6.51-5.289,4.32-5.815-9.849-2.315-16.806-5.315-19.821-8.23-.559-.511,.027-.879-.568-2.446Z" style="fill:#263238;"></path><g><path d="M298.163,448.944c.45-.315,.723-.824,.737-1.372,.042-.294-.089-.585-.335-.751-1.314-.957-6.638,1.445-7.237,1.728-.066,.023-.119,.074-.143,.14-.045,.121,.016,.257,.138,.302,1.296,.325,2.623,.514,3.959,.564,1.001,.109,2.011-.105,2.882-.611Zm.064-1.727c.107,.068,.16,.195,.134,.32-.027,.396-.224,.76-.538,1.001-1.214,.882-4.11,.456-5.668,.145,2.21-.938,5.347-1.987,6.072-1.467Z" style="fill:#407BFF;"></path><path d="M291.501,449.049c1.598-.642,4.962-3.209,4.801-4.593-.024-.29-.226-.639-.944-.745-2.897-.37-4.21,4.822-4.213,5.043-.03,.089-.004,.187,.066,.249,.054,.017,.112,.018,.166,.002l.124,.043Zm3.755-4.911c.538,.062,.535,.256,.534,.325,.141,.845-2.306,2.982-4.045,3.871,.375-1.211,1.48-4.236,3.317-4.212l.193,.016Z" style="fill:#407BFF;"></path></g></g><polygon points="264.399 395.408 287.781 395.408 287.781 399.512 265.076 399.512 264.399 395.408" style="fill:#fff; opacity:.7;"></polygon></g><g><path d="M275.853,139.917c0,.816,23.428,16.517,23.428,16.517l4.464-27.517,7.926-1.173s2.97,31.023,1.882,37.009c-1.088,5.986-3.957,11.145-10.598,10.001-5.157-.889-25.013-12.035-25.013-12.035l-2.09-22.801Z" style="fill:#407BFF;"></path><g style="opacity:.7;"><path d="M275.853,139.917c0,.816,23.428,16.517,23.428,16.517l4.464-27.517,7.926-1.173s2.97,31.023,1.882,37.009c-1.088,5.986-3.957,11.145-10.598,10.001-5.157-.889-25.013-12.035-25.013-12.035l-2.09-22.801Z" style="fill:#fff;"></path></g><polygon points="299.281 156.433 298.542 160.533 296.288 154.418 299.281 156.433" style="opacity:.3;"></polygon><polygon points="302.945 133.853 303.746 128.916 311.672 127.743 312.072 132.149 302.945 133.853" style="fill:#407BFF;"></polygon><polygon points="282.263 165.092 280.895 155.29 285.547 166.849 282.263 165.092" style="opacity:.3;"></polygon></g><g><polygon points="304.439 127.11 303.864 132.933 311.393 132.933 310.582 124.522 304.439 127.11" style="fill:#ffb5af;"></polygon><path d="M307.714,127.779c-1.782,1.148-4.146,.579-5.236-1.238-.375-.625-.74-1.365-1.051-2.231-1.328-3.69-4.87-18.374-3.247-19.039,1.623-.664,2.066,.812,2.361,2.066,.295,1.254,1.476,6.346,2.435,6.863,.959,.517,3.025-9.888,4.132-9.888s1.623,0,1.402,2.288c-.221,2.288-1.476,8.339-1.476,8.339,0,0,2.317-.98,2.612,1.086,0,0,1.668-.274,1.446,1.718s.369,6.568-.443,7.748c-.388,.564-1.686,1.483-2.936,2.288Z" style="fill:#ffb5af;"></path><path d="M309.382,125.042c-.063,0-.117-.047-.124-.112-.35-3.285-3.64-3.284-3.775-3.285h-.002c-.062,0-.114-.045-.123-.105-.009-.055-.209-1.368,.013-2.961,.227-1.63,.286-2.808-.155-3.259-.171-.174-.423-.238-.762-.2-1.081,.127-2.091,2.571-2.701,6.537-.024,.156-.037,.239-.139,.239h-.016c-.065-.006-.116-.062-.116-.127,0-.014,.002-.027,.006-.04,.004-.02,.01-.057,.018-.11,.375-2.436,1.252-6.551,2.919-6.747,.419-.049,.744,.043,.97,.273,.515,.525,.468,1.716,.225,3.468-.182,1.306-.069,2.446-.028,2.786,.616,.03,3.579,.341,3.916,3.505,.008,.068-.042,.13-.11,.138h-.014Zm-7.65-3.273h0Z" style="fill:#ff7570;"></path><path d="M307.34,120.667c-.262,0-.496-.124-.671-.357-.869-1.159,.116-4.982,.158-5.144,.018-.066,.089-.104,.152-.089,.067,.018,.107,.086,.09,.153-.01,.039-.998,3.867-.201,4.93,.151,.202,.346,.287,.566,.25,.415-.065,.856-.519,1.051-1.08,.319-.922,1.034-3.316,1.041-3.34,.021-.066,.086-.106,.156-.084,.065,.02,.104,.089,.084,.155-.008,.024-.724,2.424-1.045,3.351-.227,.653-.74,1.165-1.248,1.245-.046,.007-.09,.01-.134,.01Z" style="fill:#ff7570;"></path><path d="M309.443,120.844c-.172,0-.327-.082-.441-.235-.528-.704,.021-2.889,.086-3.136,.018-.067,.089-.103,.152-.089,.067,.018,.107,.086,.09,.153-.167,.638-.515,2.408-.129,2.922,.081,.107,.176,.148,.293,.131,.229-.036,.483-.301,.593-.616,.191-.553,.621-1.993,.625-2.007,.021-.066,.086-.105,.156-.084,.065,.02,.104,.089,.084,.155-.005,.015-.436,1.459-.629,2.018-.143,.41-.468,.73-.791,.781-.029,.004-.06,.007-.089,.007Z" style="fill:#ff7570;"></path></g><g><path d="M239.545,340.872l-30.064,101.776-3.437,10.544-8.815-2.978,1.804-19.587s-.221-38.288,6.646-70.809c1.592-7.487,6.019-15.49,6.733-21.555,.633-5.323-.765-9.161-.766-21.573,.033-15.065,1.272-34.887,6.399-49.16,0,0-12.66-20.436-2.254-40.448l47.477,2.288-23.724,111.501Z" style="fill:#ffb5af;"></path><path d="M196.973,444.102c-.208,.228,3.664-54.793,5.141-62.573l23.612,6.698-17.136,61.766-8.98,1.375-2.637-7.266Z" style="fill:#407BFF;"></path><g><path d="M210.967,444.606l-4.223-.279c-.956-.063-1.872,.362-2.487,1.096-2.655,3.165-4.403,1.787-6.845-1.515-1.671-.307-2.252,1.595-2.424,2.106l-3.915,11.277c-.337,.941,.152,1.977,1.093,2.315,.167,.06,.343,.095,.52,.104,5.129,.338,7.555,.499,13.939,.92l19.523,1.289c5.322,.351,6.779-4.939,4.619-5.58-9.714-2.829-16.503-6.191-19.361-9.26-.532-.54,.073-.877-.438-2.472Z" style="fill:#263238;"></path><path d="M219.382,448.371c.466-.29,.766-.785,.808-1.332,.057-.291-.058-.589-.295-.767-1.262-1.025-6.705,1.095-7.317,1.345-.067,.019-.123,.068-.151,.132-.052,.119,.003,.257,.121,.309,1.277,.393,2.592,.651,3.923,.771,.994,.161,2.014,0,2.91-.459Zm.155-1.721c.103,.074,.15,.204,.117,.326-.048,.394-.263,.748-.59,.972-1.259,.817-4.128,.24-5.667-.153,2.256-.82,5.444-1.704,6.141-1.146Z" style="fill:#407BFF;"></path><path d="M212.724,448.126c1.629-.557,5.124-2.944,5.036-4.334-.008-.291-.193-.65-.903-.793-2.874-.522-4.457,4.594-4.472,4.815-.035,.087-.014,.186,.052,.253,.053,.02,.111,.023,.166,.011l.121,.05Zm4.008-4.707c.534,.091,.521,.284,.517,.353,.096,.851-2.459,2.856-4.243,3.653,.438-1.19,1.7-4.153,3.534-4.032l.192,.026Z" style="fill:#407BFF;"></path></g><polygon points="201.272 388.907 223.767 395.289 222.647 399.237 200.804 393.041 201.272 388.907" style="fill:#fff; opacity:.7;"></polygon></g><path d="M275.853,139.917c-1.65-.457-10.145-4.618-11.885-4.935-5.667-1.034-11.386-1.763-17.131-2.183-1.111-.047-2.217-.191-3.315-.263,0,0-18.564,1.733-23.218,7.228-1.567-1.131,13.605,26.826,12.41,54.789l-7.851,11.055c-.338,.557-.761,1.27-1.247,2.117l26.468,3.012,27.759,1.403-2.395-15.048c.406-4.905,4.713-23.22,6.569-29.286,1.882-8.387-4.514-27.432-6.163-27.89Z" style="fill:#407BFF;"></path><path d="M275.853,139.917c-1.65-.457-10.145-4.618-11.885-4.935-5.667-1.034-11.386-1.763-17.131-2.183-1.111-.047-2.217-.191-3.315-.263,0,0-18.564,1.733-23.218,7.228-1.567-1.131,13.605,26.826,12.41,54.789l-7.851,11.055c-.338,.557-.761,1.27-1.247,2.117l26.468,3.012,27.759,1.403-2.395-15.048c.406-5.083,4.713-23.22,6.569-29.286,1.882-8.387-4.514-27.432-6.163-27.89Z" style="fill:#fff; opacity:.7;"></path><path d="M261.074,171.023s-5.444,10.529-15.947,9.723c0,0,8.213-1.962,15.947-9.723Z" style="opacity:.3;"></path><g><path d="M258.491,77.616s-17.462-.168-21.888,14.299c-4.426,14.468-12.239,30.478-23.28,34.64l13.895,3.907,5.076-6.987-3.416,8.098s17.02,6.114,29.295,6.114,19.812-5.718,19.812-5.718l-7.364-46.94-12.13-7.414Z" style="fill:#263238;"></path><ellipse cx="273.809" cy="106.878" rx="7.983" ry="8.984" style="fill:#407BFF;"></ellipse><ellipse cx="271.885" cy="106.878" rx="7.983" ry="8.984" style="opacity:.2;"></ellipse><g><path d="M241.487,134.012s4.56,2.243,10.183,7.089c1.171,1.009,2.461,1.882,3.827,2.608,3.685,1.957,7.044,3.077,7.953,1.3,.202-.391,.358-.814,.473-1.257,.772-2.975,.456-7.157-1.949-9.071-2.711-2.158-4.018-4.005-3.53-6.926,.257-1.656,.856-3.366,1.557-5.026l-3.131-1.88-11.159-11.262c1.276,6.905,1.653,20.342-4.225,24.424Z" style="fill:#ffb5af;"></path><path d="M258.355,128.397c-3.069-1.822-6.436-4.982-6.032-8.592,.18-1.52,.507-2.961,.872-3.884l6.234,8.253c-.512,1.33-.698,2.21-1.073,4.223Z" style="opacity:.2;"></path><path d="M243.551,96.891c1.05,11.466,1.253,16.328,7.169,22.339,8.899,9.043,22.591,6.001,24.948-5.363,2.122-10.229,.047-27.26-11.208-32.079-11.089-4.747-21.959,3.637-20.909,15.103Z" style="fill:#ffb5af;"></path></g><path d="M256.008,96.398c.146,.016,.294-.026,.408-.131,1.766-1.636,3.755-1.061,3.778-1.055,.295,.086,.593-.081,.661-.382,.067-.3-.12-.616-.419-.707-.104-.031-2.6-.754-4.791,1.276-.218,.202-.223,.561-.01,.8,.103,.115,.238,.182,.374,.197Z" style="fill:#263238;"></path><path d="M273.51,94.836c.115-.039,.212-.125,.262-.25,.105-.26-.023-.59-.284-.736-2.621-1.473-4.563-.353-4.645-.304-.231,.137-.286,.463-.124,.728,.162,.265,.479,.368,.71,.232,.075-.045,1.596-.888,3.68,.284,.135,.076,.279,.088,.401,.047Z" style="fill:#263238;"></path><path d="M266.632,100.031s1.794,4.292,3.817,6.967c.354,.468,.135,1.15-.415,1.353-1.416,.521-3.073,.05-3.073,.05l-.329-8.369Z" style="fill:#ff7570;"></path><path d="M259.279,98.55c-.016-.016-.031-.027-.047-.044l2.631-.622s-.608,.824-1.36,1.037c.349,.408,.595,1.043,.628,1.76,.056,1.213-.509,2.184-1.263,2.168-.754-.015-1.411-1.011-1.468-2.225-.046-.994,.328-1.815,.878-2.074Z" style="fill:#263238;"></path><path d="M270.704,98.525l-.009-.009,2.631-.622s-.686,.934-1.502,1.073c.336,.396,.573,.999,.606,1.679,.057,1.176-.506,2.116-1.258,2.1-.751-.016-1.407-.981-1.464-2.157-.05-1.034,.38-1.885,.997-2.064Z" style="fill:#263238;"></path><g><path d="M273.001,88.41s4.119-13.838-1.184-14.388c-5.303-.55-9.806,5.096-9.806,5.096l10.99,9.292Z" style="fill:#407BFF;"></path><path d="M270.641,84.882s2.369-7.027,.496-7.566c-1.872-.539-5.506,2.696-5.506,2.696,0,0,2.26,2.8,5.01,4.87Z" style="fill:#fff; opacity:.4;"></path></g><path d="M247.53,100.852s5.914-8.903,5.609-16.112c0,0,11.32-2.952,20.349,9.109,1.438,1.921,1.546,4.045,2.465,6.181,0,0,3.28-20.108-16.078-21.897-19.327-1.786-23.126,25.386-13.697,34.53,0,0-2.31-6.241,1.352-11.812Z" style="fill:#263238;"></path><path d="M263.296,112.238c-2.856,0-3.864-2.644-3.875-2.674-.071-.194,.027-.409,.222-.48,.196-.073,.409,.028,.481,.221,.041,.111,1.043,2.71,4.084,2.085,.214-.044,.401,.089,.443,.292,.042,.203-.089,.401-.291,.443-.381,.079-.734,.114-1.064,.114Z" style="fill:#263238;"></path><g><path d="M240.082,106.236c1.354,2.351,3.555,3.828,5.572,4.334,3.035,.761,4.602-4.118,3.566-7.159-.933-2.737-3.915-4.549-6.868-3.952-2.91,.588-3.819,4.088-2.27,6.777Z" style="fill:#ffb5af;"></path><path d="M246.495,105.875c-.13,0-.24-.101-.249-.233-.069-1.026-.551-2.003-1.324-2.682-.772-.678-1.803-1.029-2.831-.964-.144,.015-.257-.096-.266-.233-.009-.138,.096-.257,.233-.266,1.156-.076,2.321,.323,3.193,1.087,.871,.765,1.416,1.867,1.493,3.024,.009,.138-.095,.257-.233,.266h-.017Z" style="opacity:.2;"></path><ellipse cx="243.48" cy="106.878" rx="7.983" ry="8.984" style="fill:#407BFF;"></ellipse><ellipse cx="242.075" cy="106.878" rx="5.812" ry="6.541" style="fill:#fff; opacity:.4;"></ellipse></g><path d="M241.237,98.824c-.666-.311-3.237-20.506,17.254-21.208,1.871,.115,3.149,.43,4.197,.823,0,0-10.252,.71-13.149,5.303-5.896,9.35-3.044,15.603-3.044,15.603l-5.258-.521Z" style="fill:#407BFF;"></path><g><path d="M241.487,89.793s-6.999-13.395-.718-14.609c6.281-1.214,12.522,3.901,12.522,3.901l-11.804,10.708Z" style="fill:#407BFF;"></path><path d="M243.795,85.953s-3.886-6.767-1.72-7.543c2.166-.775,7.007,2.024,7.007,2.024,0,0-2.295,3.095-5.286,5.518Z" style="fill:#fff; opacity:.4;"></path></g></g><g><path d="M226.388,136.13c13.67,4.28,29.924,10.09,35.818,9.769l-18.726-13.929s-13.629,.925-17.092,4.16Z" style="fill:#407BFF;"></path><path d="M262.207,145.899l-.232-11.217s6.948-.175,13.878,5.235l-13.646,5.982Z" style="fill:#407BFF;"></path><path d="M230.399,134.079l29.544,9.815v1.106l-32.376-9.696c-.077-.103,2.092-1.068,2.832-1.225Z" style="fill:#fff;"></path><polygon points="262.795 143.702 272.484 137.688 274.517 138.941 263.243 144.47 262.795 143.702" style="fill:#fff;"></polygon><path d="M260.073,145.827c-3.358,1.337-5.602,4.662-6.56,8.148-.957,3.486-.821,7.166-.676,10.778,5.369-4.477,7.528-11.94,7.236-18.926Z" style="fill:#407BFF;"></path><path d="M262.144,144.173c-1.447,3.312-.705,7.254,1.065,10.406,1.77,3.152,4.455,5.672,7.097,8.139,.669-6.959-3.044-13.783-8.163-18.545Z" style="fill:#407BFF;"></path><g><path d="M264.284,144.173c0,1.817-1.473,3.29-3.289,3.29s-3.29-1.473-3.29-3.29,1.473-3.289,3.29-3.289,3.289,1.473,3.289,3.289Z" style="fill:#407BFF;"></path><path d="M264.284,144.173c-.105,4.616-6.904,4.753-7.079,0,.173-4.759,6.975-4.617,7.079,0h0Zm0,0c-.156-4.096-5.992-3.956-6.08,0,.086,3.961,5.924,4.097,6.08,0h0Z" style="fill:#263238;"></path></g></g><g><path d="M195.742,289.372s7.152-30.358,15.054-52.573c7.892-22.185,18.686-36.762,18.686-36.762l46.249,1.517s14.766,75.337,20.879,91.894c0,0-17.066,4.075-50.434,4.33-33.368,.255-50.434-8.406-50.434-8.406Z" style="fill:#407BFF;"></path><polygon points="241.648 297.784 247.11 251.905 246.177 297.778 241.648 297.784" style="opacity:.3;"></polygon><polygon points="267.711 296.953 268.657 253.278 273.065 296.653 267.711 296.953" style="opacity:.3;"></polygon><polygon points="219.015 295.834 226.304 252.298 214.338 295.01 219.015 295.834" style="opacity:.3;"></polygon></g><g><path d="M184.062,139.682c-1.805-.499-3.962-.193-5.172,1.237-.878,1.038-1.119,2.476-1.1,3.835,.027,1.939,.54,3.911,1.708,5.459,1.168,1.548,3.042,2.616,4.98,2.559,2.214-2.408,4.052-5.338,4.42-10.301-1.492-1.132-3.031-2.289-4.836-2.788Z" style="fill:#263238;"></path><path d="M220.633,139.404c-3.176-5.912-10.148-5.076-16.958-4.33-6.81,.746-13.448,3.804-17.025,8.786-4.22,5.879-3.673,13.318-2.326,20.108,1.395,7.028,3.5,13.954,6.285,20.676,1.404,3.39,3.145,6.914,6.57,9.022,6.394,3.935,15.277,1.289,22.475-1.466,4.389-1.68,9.224-3.766,10.721-7.655,.948-2.464,.317-5.141-.32-7.676-3.141-12.489-6.281-24.977-9.422-37.465" style="fill:#263238;"></path><path d="M226.041,160.906c-1.803-7.167-3.605-14.335-5.408-21.502-3.176-5.912-10.148-5.076-16.958-4.33-6.81,.746-13.448,3.804-17.025,8.786-4.22,5.879-3.673,13.318-2.326,20.108,.468,2.356,1.022,4.699,1.648,7.028,4.027-.2,27.504-1.71,40.068-10.09Z" style="fill:#fff; opacity:.8;"></path><path d="M208.973,131.337c-.834-1.492-2.225-2.77-3.913-3.04-2.043-.326-4.051,.873-5.457,2.391-1.03,1.112-1.862,2.447-2.175,3.929s-.058,3.123,.879,4.314c4.784,2.204,8.664,.447,12.221-2.729-.355-1.672-.721-3.373-1.555-4.865Z" style="fill:#263238;"></path><path d="M203.742,149.805c.428,1.806-.068,3.469-1.108,3.716-1.04,.246-2.23-1.018-2.657-2.823-.428-1.806,.068-3.469,1.108-3.716,1.04-.246,2.229,1.018,2.657,2.823Z" style="fill:#263238;"></path><path d="M191.021,154.053c.428,1.806-.068,3.469-1.108,3.716s-2.23-1.018-2.657-2.823c-.428-1.806,.068-3.469,1.108-3.716,1.04-.246,2.229,1.018,2.657,2.823Z" style="fill:#263238;"></path><path d="M199.774,158.162c.098,.826-1.138,1.652-2.761,1.845s-3.019-.32-3.117-1.146c-.098-.826,1.138-1.652,2.761-1.845,1.623-.193,3.019,.32,3.117,1.146Z" style="fill:#263238;"></path></g><g><path d="M226.388,136.13s-4.55,.973-8.235,5.755c-4.142,5.376-24.928,27.664-24.263,35.015,.594,6.569,27.252,27.678,27.252,27.678l5.579-7.614-17.292-19.921,19.621-19.008-2.663-21.905Z" style="fill:#407BFF;"></path><path d="M226.388,136.13s-4.55,.973-8.235,5.755c-4.142,5.376-24.928,27.664-24.263,35.015,.594,6.569,27.252,27.678,27.252,27.678l5.579-7.614-17.292-19.921,19.621-19.008-2.663-21.905Z" style="fill:#fff; opacity:.7;"></path><path d="M224.9,199.347s3.978-5.599,5.673-5.967c1.694-.368,9.43,.589,9.577,1.694,.147,1.105-1.031,1.249-1.031,1.249l1.915,2.213s0,.663-.884,.81c0,0-.074,1.621-.958,1.695-.884,.074-4.347-1.105-4.347-1.105l2.873,1.989s.442,.737-1.768,.516c-2.21-.221-2.984-1.326-2.984-1.326,0,0-5.399,4.795-7.905,4.795s-3.92-1.332-3.92-1.332l3.757-5.231Z" style="fill:#ffb5af;"></path><path d="M209.429,177.043s-2.237-1.693-5.514-1.262c0,0,3.266-2.479,6.881-.062l-1.367,1.324Z" style="opacity:.3;"></path></g><polygon points="217.328 201.635 224.021 193.853 226.721 196.963 221.142 204.578 217.328 201.635" style="fill:#407BFF;"></polygon><polygon points="227.456 159.642 230.513 156.518 229.051 165.105 227.456 159.642" style="opacity:.3;"></polygon><path d="M219.92,139.915s10.196-6.87,16.021,.645c5.826,7.515-7.481,39.382-7.481,39.382l1.181,4.885s11.837-24.508,12.483-35.82c.646-11.312-4.457-13.587-7.382-14.674-6.361-2.364-13.258-.597-17.14,1.796l2.317,3.785Z" style="fill:#263238;"></path></g></g></svg>
